<svg width="69" height="66" viewBox="0 0 69 66" fill="none" xmlns="http://www.w3.org/2000/svg">
<rect x="13.7222" y="11" width="55" height="55" rx="8" fill="#F8F8F8"/>
<path d="M12.2222 16.5H1.72217V46.5H12.2222V16.5Z" fill="#F2F2F2"/>
<path d="M12.7222 19.5H3.72217L4.22217 24L12.7222 24.5V19.5Z" fill="#E7E7E7"/>
<path fill-rule="evenodd" clip-rule="evenodd" d="M15.4223 10.7454C14.1022 11.8433 8.08896 11 6.26538 11C2.00665 11 2.89177 11.1636 2.89177 6.74537C2.89177 2.32709 4.41637 0.499999 8.6751 0.499999C10.4987 0.5 13.1452 0.499999 15.4223 0.499999C17.6994 0.500086 20.346 0.500067 22.1695 0.500067C26.4283 0.500067 27.9529 2.32709 27.9529 6.74537C27.9529 11.1636 27.0428 10.7454 22.7841 10.7454C20.9605 10.7454 16.7425 11.8433 15.4223 10.7454Z" fill="#E1E4E5"/>
<path fill-rule="evenodd" clip-rule="evenodd" d="M31.8847 53C30.5645 54.0979 21.1013 53.5 19.2777 53.5C15.019 53.5 20.2416 52.9183 20.2416 48.5C20.2416 44.0817 18.8746 43 23.1333 43C24.9569 43 29.6075 42.5 31.8847 42.5C34.1618 42.5001 36.8083 42.5001 38.6319 42.5001C41.0586 42.5001 47.7125 42.5001 50.6041 42.9999C52.6715 44.2669 51.0861 48.0994 51.0861 50C51.0861 54.4183 44.742 53.5 40.4833 53.5C38.6597 53.5 33.2048 54.0979 31.8847 53Z" fill="#E1E4E5"/>
<path d="M43.6827 0.5H9.73599H8.72266L10.7493 3.02381V40.881V49.9667L13.2827 53.5H16.3227L18.2227 51.5L19.3627 48.9571V42.9H46.7227V4.03333L43.6827 0.5Z" fill="#EDEDED"/>
<path d="M46.3439 43.3873C46.0509 43.3873 45.8132 43.1407 45.8132 42.8367V5.12522C45.8132 2.90844 44.1523 1.10501 42.1133 1.10501H7.43851C7.14551 1.10501 6.90784 0.858445 6.90784 0.554458C6.90784 0.25047 7.1455 0.00390625 7.43851 0.00390625H42.1133C44.739 0.00390625 46.8745 2.30082 46.8745 5.12516V42.8366C46.8745 42.9825 46.8188 43.1225 46.7191 43.226C46.6194 43.3294 46.4845 43.3872 46.3438 43.3872L46.3439 43.3873Z" fill="#666666"/>
<path d="M47.2971 53.999H15.8817C13.2572 53.999 11.1205 51.7008 11.1205 48.8777L11.1209 33.3673L11.1717 20.6334V11.6759H3.26705C2.97368 11.6759 2.73638 11.4294 2.73638 11.1254L2.69507 5.12558C2.69507 2.29692 4.83782 0 7.47108 0C10.1043 0 12.2322 2.29692 12.2322 5.12125L12.2319 20.6367L12.1822 33.3676V48.879C12.1822 51.0954 13.842 52.8993 15.8821 52.8993C17.9221 52.8993 19.5967 51.0958 19.5967 48.879L19.5554 42.8825H19.555C19.555 42.5785 19.7927 42.3319 20.0857 42.3319H51.5011C51.6421 42.3319 51.7771 42.3897 51.8764 42.4931C51.9761 42.5962 52.0318 42.7362 52.0318 42.8825L52.0731 48.8823C52.0754 51.7023 49.9326 54 47.2971 54L47.2971 53.999ZM18.8384 52.8978H47.2971C49.3466 52.8978 51.0117 51.0944 51.0117 48.8776L50.9734 43.4284H20.6196L20.6579 48.8733C20.6647 50.4302 19.9968 51.908 18.8389 52.8978H18.8384ZM3.79296 10.5746H11.1715V5.12536C11.1715 2.90858 9.51274 1.10515 7.47159 1.10515C5.43083 1.10515 3.75696 2.90858 3.75696 5.12536L3.79296 10.5746Z" fill="#666666"/>
<path d="M29.5054 25.4803C26.7065 25.4803 24.0217 24.3269 22.0427 22.2734C20.0634 20.2202 18.9517 17.4352 18.9517 14.5311C18.9517 11.6274 20.0634 8.84241 22.0427 6.78892C24.0218 4.73542 26.7065 3.58203 29.5054 3.58203C32.3043 3.58203 34.9891 4.73542 36.968 6.78892C38.9474 8.84241 40.0591 11.6274 40.0591 14.5311C40.0561 17.4341 38.9432 20.2171 36.9645 22.2698C34.9859 24.3226 32.3034 25.4771 29.5053 25.4804L29.5054 25.4803ZM29.5054 4.68257C26.9878 4.68257 24.5732 5.71999 22.7932 7.56701C21.0128 9.41372 20.0129 11.9187 20.0129 14.5306C20.0129 17.1426 21.0129 19.6476 22.7932 21.4943C24.5732 23.3414 26.9878 24.3787 29.5054 24.3787C32.023 24.3787 34.4375 23.3413 36.2176 21.4943C37.998 19.6476 38.9978 17.1426 38.9978 14.5306C38.9952 11.9198 37.9941 9.41644 36.2145 7.57013C34.4348 5.72381 32.0222 4.68529 29.5053 4.68247L29.5054 4.68257Z" fill="#666666"/>
<path d="M29.5051 22.4518C27.4802 22.4518 25.5379 21.6173 24.1063 20.132C22.6742 18.6463 21.8699 16.6317 21.8699 14.5306C21.8699 12.4299 22.6742 10.4149 24.1063 8.92955C25.5379 7.44384 27.4802 6.60938 29.5051 6.60938C31.5299 6.60938 33.4722 7.44385 34.9038 8.92955C36.3359 10.4149 37.1402 12.4299 37.1402 14.5306C37.1387 16.6309 36.3336 18.6447 34.902 20.13C33.4707 21.6149 31.5296 22.4502 29.5052 22.4517L29.5051 22.4518ZM29.5051 7.71052C27.7614 7.71052 26.0895 8.42898 24.8568 9.70824C23.6238 10.9871 22.9313 12.7217 22.9313 14.5306C22.9313 16.3395 23.6238 18.0741 24.8568 19.3534C26.0895 20.6322 27.7615 21.3507 29.5051 21.3507C31.2486 21.3507 32.9206 20.6322 34.1533 19.3534C35.3863 18.0741 36.0789 16.3395 36.0789 14.5306C36.0773 12.7224 35.3841 10.9886 34.1518 9.71015C32.9192 8.43132 31.2479 7.71203 29.5051 7.71052Z" fill="#666666"/>
<path d="M29.4791 18.5151C27.7415 18.5151 26.5986 17.6079 26.5574 16.1887V16.1883C26.5529 16.0424 26.6048 15.9004 26.7014 15.7942C26.7977 15.6881 26.9311 15.6255 27.0721 15.6212H27.0881C27.375 15.6212 27.61 15.8579 27.6187 16.1552C27.6517 17.3146 28.9708 17.4258 29.5292 17.4136C30.0875 17.4014 30.6182 17.1824 30.9006 16.8454L30.9002 16.8458C31.0822 16.6279 31.1602 16.3369 31.1125 16.053C31.0617 15.6479 30.8259 15.3428 29.8389 15.1721L29.5482 15.1257C28.6854 14.9912 27.7067 14.8382 27.0381 13.8563C26.7701 13.4702 26.6667 12.9869 26.7527 12.5197C26.8831 11.8917 27.2458 11.3424 27.7628 10.9892C28.5058 10.465 29.6479 10.3848 30.5996 10.7898H30.6C31.2917 11.0777 31.8406 11.6459 32.1196 12.3632C32.217 12.644 32.0813 12.9539 31.8137 13.0624C31.5461 13.171 31.2436 13.0388 31.1318 12.764C30.9563 12.3286 30.6197 11.9842 30.1978 11.8084C29.5705 11.5418 28.818 11.5795 28.3587 11.8996H28.3583C28.0789 12.0888 27.8784 12.3801 27.7969 12.7156C27.7624 12.8922 27.8007 13.0754 27.9031 13.2209C28.2905 13.7903 28.8401 13.9024 29.7074 14.0369C29.8082 14.0534 29.9101 14.0688 30.011 14.0865C30.4969 14.1679 31.9756 14.4168 32.1632 15.9064V15.9068C32.2481 16.5018 32.0768 17.1054 31.6951 17.5584C31.2099 18.1396 30.4026 18.4943 29.5364 18.5065L29.4791 18.5151Z" fill="#666666"/>
<path d="M29.4784 11.583C29.1854 11.583 28.9478 11.3365 28.9478 11.0325V9.47438C28.9478 9.1704 29.1854 8.92383 29.4784 8.92383C29.7714 8.92383 30.0091 9.17039 30.0091 9.47438V11.0325C30.0091 11.1784 29.9534 11.3184 29.8537 11.4218C29.7544 11.5252 29.6194 11.583 29.4784 11.583Z" fill="#666666"/>
<path d="M29.4784 20.1523C29.1854 20.1523 28.9478 19.9058 28.9478 19.6018V17.9568C28.9478 17.6528 29.1854 17.4062 29.4784 17.4062C29.7714 17.4062 30.0091 17.6528 30.0091 17.9568V19.6018C30.0091 19.7477 29.9534 19.8877 29.8537 19.9911C29.7544 20.0945 29.6194 20.1523 29.4784 20.1523Z" fill="#666666"/>
<path d="M11.675 46.8H1.59204C1.16978 46.8 0.764964 46.6262 0.466229 46.3164C0.167543 46.0065 0 45.5865 0 45.1484V17.5111C0 17.073 0.167543 16.653 0.466229 16.3431C0.764915 16.0332 1.16974 15.8594 1.59204 15.8594H11.675C11.968 15.8594 12.2057 16.1059 12.2057 16.4099C12.2057 16.7139 11.9681 16.9605 11.675 16.9605H1.59204C1.29904 16.9605 1.06137 17.207 1.06137 17.511V45.1483C1.06137 45.2942 1.11709 45.4342 1.21678 45.5377C1.31647 45.6411 1.45142 45.6989 1.59204 45.6989H11.675C11.968 45.6989 12.2057 45.9455 12.2057 46.2494C12.2057 46.5534 11.9681 46.8 11.675 46.8V46.8Z" fill="#666666"/>
<path d="M4.38216 24.8483C3.4823 24.8483 2.74885 24.1247 2.74768 23.2328V20.2445C2.74768 19.3526 3.47887 18.6259 4.37983 18.6247L11.7094 18.6113C12.0024 18.6113 12.2405 18.8583 12.2405 19.1623C12.2405 19.4663 12.0028 19.7128 11.7098 19.7128L4.3802 19.7262C4.06181 19.7262 3.80595 19.9586 3.80709 20.2437V23.232C3.80709 23.516 4.06484 23.7472 4.3802 23.7472L11.7034 23.7338C11.9964 23.7338 12.2341 23.9804 12.2341 24.2848C12.2341 24.5887 11.9964 24.8353 11.7034 24.8353L4.3802 24.8487L4.38216 24.8483Z" fill="#666666"/>
<path d="M11.6749 27.5308H0.531281C0.238281 27.5308 0.000610352 27.2842 0.000610352 26.9802C0.000610352 26.6762 0.238271 26.4297 0.531281 26.4297H11.6749C11.9679 26.4297 12.2056 26.6762 12.2056 26.9802C12.2056 27.2842 11.9679 27.5308 11.6749 27.5308Z" fill="#666666"/>
<path d="M11.6749 37.1109H0.531281C0.238281 37.1109 0.000610352 36.8643 0.000610352 36.5603C0.000610352 36.2563 0.238271 36.0098 0.531281 36.0098H11.6749C11.9679 36.0098 12.2056 36.2563 12.2056 36.5603C12.2056 36.8643 11.9679 37.1109 11.6749 37.1109Z" fill="#666666"/>
<path d="M4.06271 34.4684C3.8478 34.4687 3.65373 34.3347 3.57147 34.1286C3.48921 33.9225 3.5347 33.6854 3.6867 33.5281L7.97035 29.084C8.06928 28.9778 8.20537 28.9172 8.3475 28.916C8.49003 28.9145 8.62686 28.9727 8.72731 29.0773C8.82814 29.1815 8.88386 29.3235 8.88272 29.4713C8.88159 29.6188 8.82321 29.76 8.72087 29.8626L4.43721 34.3111C4.33715 34.4125 4.20258 34.4691 4.06271 34.4684V34.4684Z" fill="#666666"/>
<path d="M8.32367 34.4679C8.18267 34.4679 8.04734 34.4097 7.94765 34.3059L3.66517 29.8665C3.56282 29.7639 3.50446 29.6227 3.50331 29.4752C3.50218 29.3273 3.55828 29.1854 3.65873 29.0812C3.75956 28.9766 3.89639 28.9188 4.03853 28.9199C4.18106 28.9211 4.31675 28.9817 4.41568 29.0879L8.70351 33.532C8.85323 33.6905 8.89644 33.9264 8.81343 34.1309C8.73042 34.3354 8.53748 34.4683 8.3237 34.4679L8.32367 34.4679Z" fill="#666666"/>
<path d="M8.77248 41.9156H3.39688C3.10388 41.9156 2.86621 41.669 2.86621 41.365C2.86621 41.061 3.10387 40.8145 3.39688 40.8145H8.77248C9.06548 40.8145 9.30315 41.061 9.30315 41.365C9.30315 41.669 9.06549 41.9156 8.77248 41.9156Z" fill="#666666"/>
<path d="M17.7255 34.4673C17.4821 34.4669 17.2702 34.295 17.2111 34.0501C17.1523 33.8051 17.2615 33.5502 17.476 33.4311L27.2854 28.0094C27.5367 27.8702 27.8494 27.9615 27.9935 28.2163L29.8372 31.4798L41.1748 26.1482L41.1745 26.1486C41.4379 26.0397 41.7373 26.1651 41.8541 26.4329C41.9712 26.7011 41.8643 27.0169 41.6119 27.1506L29.8395 32.6879C29.5927 32.8051 29.3008 32.7099 29.1625 32.4677L27.3359 29.2328L17.9749 34.4079C17.8976 34.4484 17.8119 34.4689 17.7255 34.4673L17.7255 34.4673Z" fill="#666666"/>
<path d="M17.831 39.8636C17.538 39.8636 17.3003 39.617 17.3003 39.3131V37.4412C17.3003 37.1372 17.538 36.8906 17.831 36.8906C18.124 36.8906 18.3616 37.1372 18.3616 37.4412V39.3131C18.3616 39.459 18.3059 39.5989 18.2062 39.7024C18.1065 39.8058 17.9716 39.8636 17.831 39.8636Z" fill="#666666"/>
<path d="M21.1964 39.8646C20.9034 39.8646 20.6658 39.6181 20.6658 39.3141V35.24C20.6658 34.936 20.9034 34.6895 21.1964 34.6895C21.4894 34.6895 21.7271 34.936 21.7271 35.24V39.3141C21.7271 39.46 21.671 39.6 21.5717 39.7034C21.472 39.8068 21.3371 39.8646 21.1964 39.8646Z" fill="#666666"/>
<path d="M24.5636 39.8639C24.2706 39.8639 24.033 39.6173 24.033 39.3133V33.5877C24.033 33.2837 24.2706 33.0371 24.5636 33.0371C24.857 33.0371 25.0943 33.2837 25.0943 33.5877V39.3133C25.0943 39.4592 25.0386 39.5992 24.9389 39.7027C24.8396 39.8061 24.7046 39.8639 24.5636 39.8639Z" fill="#666666"/>
<path d="M27.9286 39.8646C27.6356 39.8646 27.3979 39.618 27.3979 39.3141V36.1209C27.3979 35.8169 27.6356 35.5703 27.9286 35.5703C28.2216 35.5703 28.4593 35.8169 28.4593 36.1209V39.3141C28.4593 39.46 28.4036 39.5999 28.3039 39.7034C28.2046 39.8068 28.0696 39.8646 27.9286 39.8646Z" fill="#666666"/>
<path d="M31.2958 39.8646C31.0028 39.8646 30.7651 39.6181 30.7651 39.3141V34.3591C30.7651 34.0552 31.0028 33.8086 31.2958 33.8086C31.5888 33.8086 31.8265 34.0552 31.8265 34.3591V39.3141C31.8265 39.46 31.7704 39.6 31.6711 39.7034C31.5714 39.8068 31.4364 39.8646 31.2958 39.8646Z" fill="#666666"/>
<path d="M34.6608 39.8631C34.3674 39.8631 34.1301 39.6166 34.1301 39.3126V32.8162C34.1301 32.5122 34.3674 32.2656 34.6608 32.2656C34.9538 32.2656 35.1915 32.5122 35.1915 32.8162V39.3126C35.1915 39.4585 35.1354 39.5985 35.0361 39.7019C34.9364 39.8053 34.8014 39.8631 34.6608 39.8631Z" fill="#666666"/>
<path d="M38.027 39.8645C37.734 39.8645 37.4963 39.6179 37.4963 39.3139V31.1658C37.4963 30.8618 37.734 30.6152 38.027 30.6152C38.32 30.6152 38.5577 30.8618 38.5577 31.1658V39.3139C38.5577 39.4598 38.502 39.5998 38.4023 39.7032C38.303 39.8067 38.168 39.8645 38.027 39.8645Z" fill="#666666"/>
<path d="M41.3925 39.8635C41.0995 39.8635 40.8618 39.6169 40.8618 39.3129V29.1834C40.8618 28.8794 41.0995 28.6328 41.3925 28.6328C41.6855 28.6328 41.9232 28.8794 41.9232 29.1834V39.3129C41.9232 39.4588 41.8674 39.5988 41.7678 39.7022C41.6681 39.8057 41.5331 39.8635 41.3925 39.8635Z" fill="#666666"/>
</svg>
