<svg width="68" height="66" viewBox="0 0 68 66" fill="none" xmlns="http://www.w3.org/2000/svg">
<rect x="13" y="11" width="55" height="55" rx="8" fill="#F3ECF8"/>
<path d="M11.5 16.5H1V46.5H11.5V16.5Z" fill="#DACAFF"/>
<path d="M12 19.5H3L3.5 24L12 24.5V19.5Z" fill="#8227C4"/>
<path fill-rule="evenodd" clip-rule="evenodd" d="M16 10.7454C14.6304 11.8433 8.39189 11 6.5 11C2.08172 11 3 11.1636 3 6.74537C3 2.32709 4.58172 0.499999 9 0.499999C10.8919 0.5 13.6376 0.499999 16 0.499999C18.3624 0.500086 21.1081 0.500067 23 0.500067C27.4183 0.500067 29 2.32709 29 6.74537C29 11.1636 28.0559 10.7454 23.6376 10.7454C21.7457 10.7454 17.3696 11.8433 16 10.7454Z" fill="#A288E1"/>
<path fill-rule="evenodd" clip-rule="evenodd" d="M33.0793 53C31.7097 54.0979 21.892 53.5 20.0001 53.5C15.5818 53.5 21.0001 52.9183 21.0001 48.5C21.0001 44.0817 19.5818 43 24.0001 43C25.892 43 30.7169 42.5 33.0793 42.5C35.4418 42.5001 38.1874 42.5001 40.0793 42.5001C42.597 42.5001 49.5001 42.5001 52.5001 42.9999C54.6449 44.2669 53.0001 48.0994 53.0001 50C53.0001 54.4183 46.4184 53.5 42.0001 53.5C40.1082 53.5 34.4489 54.0979 33.0793 53Z" fill="#A288E1"/>
<path d="M44.96 0.5H11.0133H10L12.0267 3.02381V40.881V49.9667L14.56 53.5H17.6L19.5 51.5L20.64 48.9571V42.9H48V4.03333L44.96 0.5Z" fill="#CEBAFC"/>
<path d="M48.0801 43.3872C47.7761 43.3872 47.5296 43.1407 47.5296 42.8367V5.12522C47.5296 2.90843 45.8064 1.10501 43.6911 1.10501H7.71718C7.4132 1.10501 7.16663 0.858445 7.16663 0.554458C7.16663 0.25047 7.41319 0.00390625 7.71718 0.00390625H43.6911C46.4151 0.00390625 48.6306 2.30082 48.6306 5.12516V42.8366C48.6306 42.9825 48.5728 43.1225 48.4694 43.226C48.366 43.3294 48.226 43.3872 48.0801 43.3872L48.0801 43.3872Z" fill="black"/>
<path d="M49.0691 53.999H16.4768C13.7539 53.999 11.5373 51.7008 11.5373 48.8777L11.5376 33.3673L11.5903 20.6334V11.6759H3.38956C3.08519 11.6759 2.83901 11.4294 2.83901 11.1254L2.79614 5.12558C2.79614 2.29692 5.01917 0 7.75108 0C10.483 0 12.6906 2.29692 12.6906 5.12125L12.6902 20.6367L12.6387 33.3676V48.879C12.6387 51.0954 14.3607 52.8993 16.4772 52.8993C18.5936 52.8993 20.331 51.0958 20.331 48.879L20.2881 42.8825H20.2878C20.2878 42.5785 20.5343 42.3319 20.8383 42.3319H53.4306C53.5769 42.3319 53.7169 42.3897 53.82 42.4931C53.9234 42.5962 53.9812 42.7362 53.9812 42.8825L54.0241 48.8823C54.0264 51.7023 51.8034 54 49.0691 54L49.0691 53.999ZM19.5443 52.8978H49.0691C51.1954 52.8978 52.9229 51.0944 52.9229 48.8776L52.8832 43.4284H21.3922L21.4319 48.8733C21.439 50.4302 20.7461 51.908 19.5448 52.8978H19.5443ZM3.93516 10.5746H11.5901V5.12536C11.5901 2.90858 9.86923 1.10515 7.75161 1.10515C5.63439 1.10515 3.89781 2.90858 3.89781 5.12536L3.93516 10.5746Z" fill="black"/>
<path d="M30.6107 25.4803C27.707 25.4803 24.9216 24.3269 22.8685 22.2734C20.815 20.2202 19.6616 17.4352 19.6616 14.5311C19.6616 11.6274 20.815 8.84241 22.8685 6.78892C24.9217 4.73542 27.707 3.58203 30.6107 3.58203C33.5145 3.58203 36.2999 4.73542 38.353 6.78892C40.4065 8.84241 41.5598 11.6274 41.5598 14.5311C41.5567 17.4341 40.4021 20.2171 38.3493 22.2698C36.2965 24.3226 33.5136 25.4771 30.6106 25.4804L30.6107 25.4803ZM30.6107 4.68257C27.9988 4.68257 25.4938 5.71999 23.6471 7.56701C21.8 9.41372 20.7627 11.9187 20.7627 14.5306C20.7627 17.1426 21.8001 19.6476 23.6471 21.4943C25.4938 23.3414 27.9988 24.3787 30.6107 24.3787C33.2227 24.3787 35.7277 23.3413 37.5744 21.4943C39.4215 19.6476 40.4588 17.1426 40.4588 14.5306C40.4561 11.9198 39.4175 9.41644 37.5711 7.57013C35.7248 5.72381 33.2218 4.68529 30.6106 4.68247L30.6107 4.68257Z" fill="black"/>
<path d="M30.6104 22.4518C28.5097 22.4518 26.4947 21.6173 25.0094 20.1321C23.5237 18.6463 22.6892 16.6317 22.6892 14.5306C22.6892 12.4299 23.5237 10.4149 25.0094 8.92955C26.4947 7.44384 28.5097 6.60938 30.6104 6.60938C32.7111 6.60938 34.7262 7.44385 36.2115 8.92955C37.6972 10.4149 38.5317 12.4299 38.5317 14.5306C38.5301 16.6309 37.6948 18.6447 36.2096 20.13C34.7247 21.6149 32.7108 22.4502 30.6105 22.4517L30.6104 22.4518ZM30.6104 7.71052C28.8015 7.71052 27.0669 8.42898 25.7881 9.70824C24.5088 10.9871 23.7904 12.7217 23.7904 14.5306C23.7904 16.3395 24.5088 18.0741 25.7881 19.3534C27.0669 20.6322 28.8016 21.3507 30.6104 21.3507C32.4193 21.3507 34.154 20.6322 35.4328 19.3534C36.712 18.0741 37.4305 16.3395 37.4305 14.5306C37.4289 12.7224 36.7097 10.9886 35.4313 9.71015C34.1525 8.43133 32.4186 7.71203 30.6104 7.71052Z" fill="black"/>
<path d="M30.5834 18.5151C28.7808 18.5151 27.5951 17.6079 27.5523 16.1887V16.1883C27.5476 16.0424 27.6014 15.9004 27.7017 15.7942C27.8016 15.6881 27.94 15.6255 28.0863 15.6212H28.1028C28.4005 15.6212 28.6443 15.8579 28.6534 16.1552C28.6876 17.3146 30.0561 17.4258 30.6354 17.4136C31.2147 17.4014 31.7652 17.1824 32.0582 16.8454L32.0578 16.8458C32.2466 16.6279 32.3276 16.3369 32.278 16.053C32.2253 15.6479 31.9807 15.3428 30.9567 15.1721L30.6551 15.1257C29.7601 14.9912 28.7446 14.8382 28.051 13.8563C27.773 13.4702 27.6656 12.9869 27.7549 12.5197C27.8902 11.8917 28.2665 11.3424 28.8029 10.9892C29.5737 10.465 30.7585 10.3848 31.7459 10.7898H31.7463C32.464 11.0777 33.0334 11.6459 33.3228 12.3632C33.4239 12.644 33.2831 12.9539 33.0055 13.0624C32.7278 13.171 32.414 13.0388 32.298 12.764C32.116 12.3286 31.7668 11.9842 31.3291 11.8084C30.6782 11.5418 29.8976 11.5795 29.421 11.8996H29.4207C29.1308 12.0888 28.9228 12.3801 28.8382 12.7156C28.8025 12.8922 28.8422 13.0754 28.9484 13.2209C29.3503 13.7903 29.9205 13.9024 30.8202 14.0369C30.9249 14.0534 31.0306 14.0688 31.1352 14.0865C31.6394 14.1679 33.1734 14.4168 33.3681 15.9064V15.9068C33.4562 16.5018 33.2785 17.1054 32.8825 17.5584C32.3791 18.1396 31.5415 18.4943 30.6429 18.5065L30.5834 18.5151Z" fill="black"/>
<path d="M30.5828 11.583C30.2788 11.583 30.0322 11.3365 30.0322 11.0325V9.47438C30.0322 9.1704 30.2788 8.92383 30.5828 8.92383C30.8868 8.92383 31.1333 9.17039 31.1333 9.47438V11.0325C31.1333 11.1784 31.0755 11.3184 30.9721 11.4218C30.8691 11.5252 30.7291 11.583 30.5828 11.583Z" fill="black"/>
<path d="M30.5828 20.1523C30.2788 20.1523 30.0322 19.9058 30.0322 19.6018V17.9568C30.0322 17.6528 30.2788 17.4062 30.5828 17.4062C30.8868 17.4062 31.1333 17.6528 31.1333 17.9568V19.6018C31.1333 19.7477 31.0755 19.8877 30.9721 19.9911C30.8691 20.0945 30.7291 20.1523 30.5828 20.1523Z" fill="black"/>
<path d="M12.1124 46.8H1.65168C1.2136 46.8 0.793623 46.6262 0.483696 46.3163C0.173819 46.0065 0 45.5865 0 45.1484V17.5111C0 17.073 0.173819 16.653 0.483696 16.3431C0.793572 16.0332 1.21356 15.8594 1.65168 15.8594H12.1124C12.4164 15.8594 12.663 16.1059 12.663 16.4099C12.663 16.7139 12.4164 16.9605 12.1124 16.9605H1.65168C1.34771 16.9605 1.10113 17.207 1.10113 17.511V45.1483C1.10113 45.2942 1.15894 45.4342 1.26237 45.5376C1.36579 45.6411 1.50579 45.6989 1.65168 45.6989H12.1124C12.4164 45.6989 12.663 45.9454 12.663 46.2494C12.663 46.5534 12.4164 46.8 12.1124 46.8V46.8Z" fill="black"/>
<path d="M4.54629 24.8483C3.61273 24.8483 2.85179 24.1247 2.85059 23.2328V20.2445C2.85059 19.3526 3.60916 18.6259 4.54388 18.6247L12.1481 18.6113C12.4521 18.6113 12.699 18.8583 12.699 19.1623C12.699 19.4663 12.4525 19.7128 12.1485 19.7128L4.54427 19.7262C4.21395 19.7262 3.9485 19.9586 3.94969 20.2437V23.232C3.94969 23.516 4.21709 23.7472 4.54427 23.7472L12.1418 23.7338C12.4458 23.7338 12.6924 23.9804 12.6924 24.2848C12.6924 24.5887 12.4458 24.8353 12.1418 24.8353L4.54427 24.8487L4.54629 24.8483Z" fill="black"/>
<path d="M12.1123 27.5308H0.551162C0.247185 27.5308 0.000610352 27.2842 0.000610352 26.9802C0.000610352 26.6762 0.247175 26.4297 0.551162 26.4297H12.1123C12.4162 26.4297 12.6628 26.6762 12.6628 26.9802C12.6628 27.2842 12.4162 27.5308 12.1123 27.5308Z" fill="black"/>
<path d="M12.1123 37.1109H0.551162C0.247185 37.1109 0.000610352 36.8643 0.000610352 36.5603C0.000610352 36.2563 0.247175 36.0098 0.551162 36.0098H12.1123C12.4162 36.0098 12.6628 36.2563 12.6628 36.5603C12.6628 36.8643 12.4162 37.1109 12.1123 37.1109Z" fill="black"/>
<path d="M4.21496 34.4684C3.99199 34.4687 3.79065 34.3347 3.70531 34.1286C3.61997 33.9225 3.66716 33.6854 3.82486 33.5281L8.26899 29.084C8.37163 28.9778 8.51281 28.9172 8.66027 28.916C8.80814 28.9145 8.95009 28.9727 9.05431 29.0773C9.15892 29.1815 9.21672 29.3235 9.21554 29.4713C9.21436 29.6188 9.1538 29.76 9.04762 29.8626L4.60349 34.3111C4.49968 34.4125 4.36007 34.4691 4.21496 34.4684V34.4684Z" fill="black"/>
<path d="M8.63549 34.4679C8.4892 34.4679 8.34881 34.4097 8.24539 34.3059L3.80246 29.8665C3.69628 29.7639 3.63573 29.6227 3.63454 29.4752C3.63336 29.3273 3.69156 29.1854 3.79577 29.0812C3.90038 28.9766 4.04234 28.9188 4.18981 28.9199C4.33768 28.9211 4.47846 28.9817 4.58109 29.0879L9.02956 33.532C9.18489 33.6905 9.22972 33.9264 9.1436 34.1309C9.05748 34.3354 8.85731 34.4683 8.63552 34.4679L8.63549 34.4679Z" fill="black"/>
<path d="M9.10117 41.9156H3.52418C3.22021 41.9156 2.97363 41.669 2.97363 41.365C2.97363 41.061 3.2202 40.8145 3.52418 40.8145H9.10117C9.40515 40.8145 9.65173 41.061 9.65173 41.365C9.65173 41.669 9.40516 41.9156 9.10117 41.9156Z" fill="black"/>
<path d="M18.3894 34.4673C18.1369 34.4669 17.9171 34.2951 17.8557 34.0501C17.7948 33.8051 17.908 33.5502 18.1306 33.4311L28.3075 28.0094C28.5682 27.8702 28.8926 27.9615 29.0421 28.2163L30.9548 31.4798L42.7172 26.1482L42.7169 26.1486C42.9902 26.0397 43.3008 26.1651 43.4219 26.4329C43.5435 26.7011 43.4326 27.0169 43.1707 27.1506L30.9572 32.6879C30.7012 32.8051 30.3984 32.7099 30.2549 32.4677L28.3598 29.2328L18.6482 34.4079C18.5679 34.4484 18.4791 34.4689 18.3894 34.4673L18.3894 34.4673Z" fill="black"/>
<path d="M18.499 39.8636C18.1951 39.8636 17.9485 39.617 17.9485 39.3131V37.4412C17.9485 37.1372 18.1951 36.8906 18.499 36.8906C18.803 36.8906 19.0496 37.1372 19.0496 37.4412V39.3131C19.0496 39.459 18.9918 39.5989 18.8884 39.7024C18.7849 39.8058 18.6449 39.8636 18.499 39.8636Z" fill="black"/>
<path d="M21.9905 39.8646C21.6865 39.8646 21.4399 39.6181 21.4399 39.3141V35.24C21.4399 34.936 21.6865 34.6895 21.9905 34.6895C22.2945 34.6895 22.541 34.936 22.541 35.24V39.3141C22.541 39.46 22.4828 39.6 22.3798 39.7034C22.2764 39.8068 22.1364 39.8646 21.9905 39.8646Z" fill="black"/>
<path d="M25.4839 39.8639C25.1799 39.8639 24.9333 39.6173 24.9333 39.3133V33.5877C24.9333 33.2837 25.1799 33.0371 25.4839 33.0371C25.7883 33.0371 26.0345 33.2837 26.0345 33.5877V39.3133C26.0345 39.4592 25.9766 39.5992 25.8732 39.7027C25.7702 39.8061 25.6302 39.8639 25.4839 39.8639Z" fill="black"/>
<path d="M28.9749 39.8646C28.6709 39.8646 28.4243 39.618 28.4243 39.3141V36.1209C28.4243 35.8169 28.6709 35.5703 28.9749 35.5703C29.2788 35.5703 29.5254 35.8169 29.5254 36.1209V39.3141C29.5254 39.46 29.4676 39.5999 29.3642 39.7034C29.2612 39.8068 29.1212 39.8646 28.9749 39.8646Z" fill="black"/>
<path d="M32.4683 39.8646C32.1643 39.8646 31.9177 39.6181 31.9177 39.3141V34.3591C31.9177 34.0552 32.1643 33.8086 32.4683 33.8086C32.7723 33.8086 33.0188 34.0552 33.0188 34.3591V39.3141C33.0188 39.46 32.9606 39.6 32.8576 39.7034C32.7542 39.8068 32.6142 39.8646 32.4683 39.8646Z" fill="black"/>
<path d="M35.9592 39.8631C35.6549 39.8631 35.4087 39.6166 35.4087 39.3126V32.8162C35.4087 32.5122 35.6549 32.2656 35.9592 32.2656C36.2632 32.2656 36.5098 32.5122 36.5098 32.8162V39.3126C36.5098 39.4585 36.4516 39.5985 36.3486 39.7019C36.2451 39.8053 36.1051 39.8631 35.9592 39.8631Z" fill="black"/>
<path d="M39.4514 39.8645C39.1475 39.8645 38.9009 39.6179 38.9009 39.3139V31.1658C38.9009 30.8618 39.1474 30.6152 39.4514 30.6152C39.7554 30.6152 40.002 30.8618 40.002 31.1658V39.3139C40.002 39.4598 39.9442 39.5998 39.8407 39.7032C39.7377 39.8067 39.5977 39.8645 39.4514 39.8645Z" fill="black"/>
<path d="M42.9431 39.8635C42.6392 39.8635 42.3926 39.6169 42.3926 39.3129V29.1834C42.3926 28.8794 42.6391 28.6328 42.9431 28.6328C43.2471 28.6328 43.4937 28.8794 43.4937 29.1834V39.3129C43.4937 39.4588 43.4359 39.5988 43.3324 39.7022C43.229 39.8057 43.089 39.8635 42.9431 39.8635Z" fill="black"/>
</svg>
