<svg width="165" height="33" viewBox="0 0 165 33" fill="none" xmlns="http://www.w3.org/2000/svg">
<path fill-rule="evenodd" clip-rule="evenodd" d="M30.0718 32.4969H35.6324L39.993 16.4219H34.4327L30.0718 32.4969Z" fill="#ADADAD"/>
<path fill-rule="evenodd" clip-rule="evenodd" d="M58.6353 32.4969H64.1962L68.5565 16.4219H62.9967L58.6353 32.4969Z" fill="#ADADAD"/>
<path fill-rule="evenodd" clip-rule="evenodd" d="M87.1992 32.4969H92.7595L97.1201 16.4219H91.5601L87.1992 32.4969Z" fill="#ADADAD"/>
<path fill-rule="evenodd" clip-rule="evenodd" d="M53.4605 21.9299H59.0252C59.7636 18.316 57.3987 16.4551 51.9444 16.4551C45.6349 16.4551 41.3461 19.5069 39.9076 24.8087C38.6047 29.6123 41.1846 32.5373 47.1214 32.5373C53.1235 32.5373 56.6693 30.6944 58.1848 26.5614H52.5977C51.8207 28.3793 50.3572 29.3311 48.3859 29.3311C45.6916 29.3311 44.6371 27.6424 45.4644 24.5917C46.328 21.4114 48.3589 19.6575 51.0753 19.6575C52.7842 19.6575 53.5863 20.4157 53.4605 21.9299Z" fill="#ADADAD"/>
<path fill-rule="evenodd" clip-rule="evenodd" d="M82.0245 21.9299H87.5889C88.3274 18.316 85.9627 16.4551 80.5084 16.4551C74.1989 16.4551 69.9095 19.5069 68.471 24.8087C67.1681 29.6123 69.7486 32.5373 75.6854 32.5373C81.6876 32.5373 85.2333 30.6944 86.7482 26.5614H81.1621C80.3841 28.3793 78.9206 29.3311 76.9493 29.3311C74.255 29.3311 73.2011 27.6424 74.0284 24.5917C74.8918 21.4114 76.9226 19.6575 79.6393 19.6575C81.3477 19.6575 82.1503 20.4157 82.0245 21.9299Z" fill="#ADADAD"/>
<path fill-rule="evenodd" clip-rule="evenodd" d="M8.58996 7.50905C16.0388 0.216054 25.0446 -1.66781 28.6372 3.31547C32.2291 8.29761 29.0839 18.3101 21.6351 25.6031C14.1857 32.8952 5.18015 34.7803 1.5882 29.797C-2.00374 24.8137 1.14113 14.8012 8.58996 7.50905Z" fill="#ADADAD"/>
<path fill-rule="evenodd" clip-rule="evenodd" d="M13.5208 3.61992C12.717 4.21449 11.863 4.90921 11.0595 5.70207C4.53237 12.051 1.82062 20.7816 5.03434 25.1468C8.34828 29.5111 16.3824 27.9246 23.0103 21.4752C26.5758 18.0538 28.9858 14.0359 29.99 10.3155C30.2915 7.58766 29.8904 5.15743 28.6337 3.32177C25.7721 -0.547266 19.6458 -0.249979 13.5208 3.61992Z" fill="#ADADAD"/>
<path fill-rule="evenodd" clip-rule="evenodd" d="M22.4621 3.39208C23.3316 4.24922 22.802 6.1262 21.3228 7.60116C19.8303 9.06292 17.8898 9.58403 17.0479 8.74038C16.1529 7.89587 16.6825 5.9922 18.1742 4.50461C19.681 3.01703 21.6212 2.56077 22.4621 3.39208ZM17.2106 29.2004C13.7241 31.7882 10.1205 33.0694 6.60645 32.5337C8.08012 32.6086 9.27288 30.9916 10.2495 28.8202C11.2407 26.5951 11.8376 24.5307 12.3126 22.6004C13.0051 19.5443 13.0589 17.3594 12.7056 16.8905C12.1093 16.1129 10.7521 16.3137 9.21856 17.1852C8.48564 17.587 7.50901 17.3192 8.66226 15.9387C9.82917 14.5441 14.4701 11.193 16.1387 10.6707C17.9708 10.1476 20.0606 10.8584 19.355 12.8421C18.8525 14.2895 12.4337 30.9273 17.2106 29.2004Z" fill="white"/>
<path fill-rule="evenodd" clip-rule="evenodd" d="M101.272 32.5273H109.613C111.986 32.5273 113.752 32.3486 115.446 31.1878C116.579 30.4283 117.413 29.2684 117.758 27.9951C118.358 25.7844 117.333 24.3109 114.786 23.9531C117.191 23.5077 118.706 22.2575 119.22 20.3592C119.62 18.8851 119.294 17.836 118.222 17.1218C117.339 16.5413 115.894 16.4512 113.928 16.4512H105.633L101.272 32.5273ZM108.469 18.9084H111.928C114.527 18.9084 115.731 19.22 115.295 20.8281C114.859 22.4359 113.462 22.8371 110.772 22.8371H107.404L108.469 18.9084ZM105.473 29.9594L106.744 25.2711H110.383C113.186 25.2711 114.431 25.7629 113.916 27.6603C113.444 29.4015 112.072 29.9594 109.54 29.9594H105.473Z" fill="#ADADAD"/>
<path fill-rule="evenodd" clip-rule="evenodd" d="M126.935 32.5267H130.281C130.374 31.7689 130.553 30.9419 130.801 30.0265L132.019 25.5382C132.824 22.5685 131.337 21.0508 127.562 21.0508C123.924 21.0508 121.55 22.3005 120.823 24.3999H124.032C124.453 23.3507 125.377 22.8598 126.914 22.8598C128.631 22.8598 129.239 23.6185 128.798 25.2481L128.743 25.4498H126.98C122.007 25.4498 119.324 26.3417 118.555 29.1785C117.961 31.366 119.358 32.7988 122.319 32.7988C124.24 32.7988 125.925 32.1695 127.264 30.9867L126.935 32.5267ZM128.228 27.346L128.174 27.5483C127.611 29.6239 125.915 30.8747 123.836 30.8747C122.321 30.8747 121.687 30.2945 121.979 29.223C122.378 27.7489 123.685 27.346 126.104 27.346H128.228Z" fill="#ADADAD"/>
<path fill-rule="evenodd" clip-rule="evenodd" d="M133.161 32.5261H136.529L138.085 26.7884C138.649 24.7117 140.579 23.2597 142.59 23.2597C144.557 23.2597 145.243 24.3992 144.625 26.6768L143.038 32.5261H146.338L148.204 25.6492C148.991 22.7475 147.501 21.0723 144.224 21.0723C142.099 21.0723 140.369 21.7874 138.917 23.3045L139.32 21.3179H135.998C135.655 23.0821 135.425 24.176 135.31 24.6001L133.161 32.5261Z" fill="#ADADAD"/>
<path fill-rule="evenodd" clip-rule="evenodd" d="M149.308 32.5273H152.587L154.228 26.4771L158.643 32.5273H163.142L158.167 26.119L164.916 21.3191H160.69L154.403 25.8298L156.947 16.4512H153.669L149.308 32.5273Z" fill="#ADADAD"/>
</svg>
