<svg width="222" height="174" viewBox="0 0 222 174" fill="none" xmlns="http://www.w3.org/2000/svg">
<path d="M211.927 126.92H192.426C187.647 126.92 183.644 123.681 183.644 119.578C183.644 117.527 184.677 115.691 186.227 114.395C187.776 113.1 189.972 112.236 192.426 112.236H195.267C197.721 112.236 199.916 111.372 201.466 110.077C203.016 108.781 204.049 106.946 204.049 104.894C204.049 100.899 200.174 97.5524 195.267 97.5524H135.704C134.148 97.5524 133.148 95.6472 133.148 94.0973C133.148 90.2105 129.403 87.0792 124.754 87.0792H102.588C102.028 87.0792 101.49 86.8573 101.094 86.4625C100.698 86.0677 100.475 85.5322 100.475 84.9738C100.475 84.4155 100.698 83.88 101.094 83.4851C101.49 83.0903 102.028 82.8685 102.588 82.8685H187.518C191.264 82.8685 194.75 81.5728 197.204 79.5216C199.658 77.4699 201.208 74.555 201.208 71.4237C201.208 65.0536 195.009 59.9789 187.518 59.9789H143.653C136.771 59.9789 129.958 54.6886 123.075 54.6886H98.5838C94.9919 54.6886 92.0802 51.7882 92.0802 48.2103C92.0802 44.6327 94.9919 41.7324 98.5838 41.7324H153.424C156.007 41.7324 158.461 40.8683 160.139 39.4648C161.819 38.0612 162.852 36.1178 162.852 33.8506C162.852 29.5317 158.59 25.9688 153.424 25.9688H26.9912C24.4085 25.9688 21.9547 26.8324 20.2759 28.236C18.597 29.6395 17.5637 31.5833 17.5637 33.8506C17.5637 38.1694 21.8255 41.7324 26.9912 41.7324H30.22C34.4815 41.7324 38.0979 44.6473 38.0979 48.3185C38.0979 50.1537 37.1937 51.7733 35.7732 52.9612C34.3527 54.1487 32.4156 54.9046 30.22 54.9046H14.5935C11.8813 54.9046 9.29833 55.8761 7.49033 57.3878C5.68233 58.8992 4.52019 60.9508 4.52019 63.3263C4.52019 67.9689 9.03998 71.6397 14.4644 71.6397H30.3492C35.5149 71.6397 39.7767 75.2027 39.7767 79.5216C39.7767 81.681 38.7433 83.6244 37.0645 85.0279C35.3857 86.4315 33.061 87.2952 30.478 87.2952H16.2724C13.9477 87.2952 11.8813 88.051 10.3317 89.3468C8.78203 90.6421 7.87784 92.3699 7.87784 94.3133C7.87784 98.2001 11.623 101.331 16.2724 101.331H27.7662C34.3527 101.331 39.6475 105.758 39.6475 111.264C39.6475 113.964 38.3558 116.555 36.1607 118.282C33.9652 120.118 30.9947 121.198 27.7662 121.198H11.7522C8.5237 121.198 5.55316 122.277 3.48682 124.113C1.29131 125.84 0 128.323 0 131.023C0 136.421 5.29482 140.848 11.7522 140.848H61.2005C66.6616 140.848 72.026 143.871 77.4871 143.871H86.4935C89.9357 143.871 92.7261 146.651 92.7261 150.079C92.7261 153.508 89.9357 156.287 86.4935 156.287H64.5724C61.7314 156.287 59.2776 157.259 57.4696 158.771C55.6616 160.282 54.499 162.442 54.499 164.709C54.499 169.352 59.0192 173.131 64.5724 173.131H198.883C201.724 173.131 204.178 172.159 205.986 170.647C207.794 169.136 208.957 166.976 208.957 164.709C208.957 160.066 204.436 156.287 198.883 156.287H194.88C190.747 156.287 187.518 153.48 187.518 150.133C187.518 148.406 188.293 146.894 189.714 145.814C191.005 144.735 192.943 143.979 195.009 143.979H211.927C214.768 143.979 217.221 143.007 219.03 141.496C220.838 139.984 222 137.825 222 135.558C222 130.699 217.48 126.92 211.927 126.92Z" fill="white"/>
<path fill-rule="evenodd" clip-rule="evenodd" d="M200.296 59.2642H198.166C197.919 59.2638 197.683 59.1657 197.509 58.9914C197.335 58.8171 197.237 58.5808 197.236 58.3344V56.2045C197.236 55.6899 197.655 55.2753 198.166 55.2753H200.296C200.807 55.2753 201.227 55.6939 201.227 56.2045V58.3344C201.227 58.4566 201.203 58.5776 201.157 58.6906C201.11 58.8036 201.041 58.9062 200.955 58.9926C200.869 59.079 200.766 59.1475 200.653 59.1941C200.54 59.2407 200.419 59.2645 200.296 59.2642ZM192.91 59.2642H190.779C190.533 59.2631 190.297 59.1648 190.123 58.9906C189.949 58.8165 189.85 58.5806 189.85 58.3344V56.2045C189.85 55.6899 190.268 55.2753 190.779 55.2753H192.91C193.42 55.2753 193.84 55.6939 193.84 56.2045V58.3344C193.839 58.5806 193.74 58.8165 193.566 58.9907C193.392 59.1648 193.156 59.2631 192.91 59.2642ZM185.519 59.2642H183.388C183.142 59.2631 182.906 59.1648 182.732 58.9907C182.557 58.8165 182.459 58.5806 182.458 58.3344V56.2045C182.458 55.6899 182.877 55.2753 183.388 55.2753H185.519C186.029 55.2753 186.448 55.6939 186.448 56.2045V58.3344C186.449 58.4565 186.425 58.5775 186.378 58.6905C186.332 58.8034 186.263 58.906 186.177 58.9924C186.09 59.0788 185.988 59.1473 185.875 59.1939C185.762 59.2406 185.641 59.2644 185.519 59.2642ZM178.132 59.2642H176.001C175.755 59.2631 175.519 59.1648 175.345 58.9907C175.17 58.8165 175.072 58.5806 175.071 58.3344V56.2045C175.071 55.6899 175.49 55.2753 176.001 55.2753H178.132C178.647 55.2753 179.066 55.6939 179.066 56.2045V58.3344C179.063 58.5808 178.964 58.8163 178.789 58.9902C178.614 59.1641 178.378 59.2625 178.132 59.2642ZM170.745 59.2642H168.614C168.367 59.2642 168.13 59.1663 167.955 58.9921C167.78 58.8178 167.681 58.5813 167.68 58.3344V56.2045C167.68 55.6899 168.099 55.2753 168.614 55.2753H170.745C171.256 55.2753 171.674 55.6939 171.674 56.2045V58.3344C171.674 58.845 171.256 59.2642 170.745 59.2642ZM192.639 51.2123H190.509C190.262 51.2112 190.026 51.1129 189.852 50.9388C189.678 50.7646 189.58 50.5287 189.579 50.2824V48.1479C189.579 47.6373 189.998 47.2188 190.509 47.2188H192.639C193.154 47.2188 193.569 47.6373 193.569 48.1479V50.2778C193.57 50.4003 193.546 50.5217 193.5 50.6351C193.453 50.7485 193.385 50.8516 193.299 50.9384C193.212 51.0253 193.109 51.0942 192.996 51.1412C192.883 51.1882 192.762 51.2124 192.639 51.2123ZM185.252 51.2123H183.122C182.875 51.2112 182.639 51.1129 182.465 50.9388C182.291 50.7646 182.193 50.5287 182.192 50.2824V48.1479C182.192 47.6373 182.611 47.2188 183.122 47.2188H185.252C185.763 47.2188 186.182 47.6373 186.182 48.1479V50.2778C186.183 50.4003 186.159 50.5217 186.113 50.6351C186.066 50.7485 185.998 50.8516 185.912 50.9384C185.825 51.0253 185.723 51.0942 185.609 51.1412C185.496 51.1882 185.375 51.2124 185.252 51.2123ZM177.865 51.2123H175.735C175.488 51.2123 175.251 51.1144 175.076 50.9402C174.901 50.7659 174.802 50.5294 174.801 50.2824V48.1479C174.802 47.9011 174.901 47.6647 175.076 47.4906C175.251 47.3165 175.488 47.2187 175.735 47.2188H177.865C178.376 47.2188 178.795 47.6373 178.795 48.1479V50.2778C178.795 50.5248 178.697 50.7618 178.523 50.9369C178.349 51.112 178.113 51.211 177.865 51.2123ZM185.519 67.9141H183.388C183.142 67.9131 182.906 67.8148 182.732 67.6406C182.557 67.4665 182.459 67.2306 182.458 66.9843V64.8551C182.458 64.3399 182.877 63.9253 183.388 63.9253H185.519C186.029 63.9253 186.448 64.3445 186.448 64.8551V66.9843C186.449 67.1065 186.425 67.2275 186.378 67.3404C186.332 67.4533 186.263 67.5559 186.177 67.6423C186.09 67.7288 185.988 67.7972 185.875 67.8439C185.762 67.8905 185.641 67.9144 185.519 67.9141ZM178.132 67.9141H176.001C175.755 67.9131 175.519 67.8148 175.345 67.6406C175.17 67.4665 175.072 67.2306 175.071 66.9843V64.8551C175.071 64.3399 175.49 63.9253 176.001 63.9253H178.132C178.647 63.9253 179.066 64.3445 179.066 64.8551V66.9843C179.063 67.2308 178.964 67.4663 178.789 67.6401C178.614 67.814 178.378 67.9124 178.132 67.9141Z" fill="#FEC62E"/>
<rect x="53.5337" y="11.0195" width="114.936" height="152.671" rx="8" fill="#DADEE6"/>
<path d="M71.6382 48.0307L75.7574 52.2466L83.4467 44.377" stroke="#0084D1" stroke-width="7" stroke-linecap="round"/>
<path d="M143.108 44.0723H102.38C98.5902 44.0723 95.5181 47.1433 95.5181 50.9317C95.5181 54.72 98.5902 57.791 102.38 57.791H143.108C146.897 57.791 149.969 54.72 149.969 50.9317C149.969 47.1433 146.897 44.0723 143.108 44.0723Z" fill="white"/>
<path d="M71.6382 85.8041L75.7574 90.02L83.4467 82.1504" stroke="#0084D1" stroke-width="7" stroke-linecap="round"/>
<path d="M142.886 80.5762H102.601C98.6893 80.5762 95.5181 83.7463 95.5181 87.6568C95.5181 91.5674 98.6893 94.7375 102.601 94.7375H142.886C146.798 94.7375 149.969 91.5674 149.969 87.6568C149.969 83.7463 146.798 80.5762 142.886 80.5762Z" fill="white"/>
<path d="M71.6382 123.58L75.7574 127.795L83.4467 119.926" stroke="#0084D1" stroke-width="7" stroke-linecap="round"/>
<path d="M143.108 117.564H102.38C98.5902 117.564 95.5181 120.636 95.5181 124.424C95.5181 128.212 98.5902 131.283 102.38 131.283H143.108C146.897 131.283 149.969 128.212 149.969 124.424C149.969 120.636 146.897 117.564 143.108 117.564Z" fill="white"/>
<rect x="77.1494" width="66.9149" height="25.9698" rx="8" fill="#DADEE6"/>
</svg>
