<svg width="245" height="169" viewBox="0 0 245 169" fill="none" xmlns="http://www.w3.org/2000/svg">
<path d="M0.658535 74.8796C-6.31322 105.148 42.6443 177.662 120.301 167.463C156.418 162.718 156.603 144.46 186.72 125.587C204.672 114.339 228.815 107.669 238.544 88.4765C246.946 71.9105 246.929 52.5328 239.762 38.6854C223.646 7.54435 184.728 -18.6246 135.62 17.4977C86.5111 53.6194 18.6465 -3.18163 0.658535 74.8796Z" fill="white"/>
<path d="M236.253 144.889H7.62304C6.48827 144.889 5.56836 145.807 5.56836 146.941C5.56836 148.074 6.48827 148.993 7.62304 148.993H236.253C237.387 148.993 238.307 148.074 238.307 146.941C238.307 145.807 237.387 144.889 236.253 144.889Z" fill="#E1E4E5"/>
<path d="M109.893 145.033C109.893 145.033 89.2429 118.61 80.6125 114.56C71.4147 110.246 79.3894 125.196 79.3894 125.196C79.3894 125.196 59.7235 105.94 55.1039 110.747C50.4842 115.555 55.4173 120.055 55.4173 120.055C55.4173 120.055 38.95 117.004 36.5475 123.154C32.8581 132.603 59.944 137.302 59.944 137.302C59.944 137.302 46.9681 134.464 49.5645 140.314C53.4788 149.134 109.893 145.033 109.893 145.033Z" fill="#E1E4E5"/>
<path d="M58.3018 133.41C58.3018 133.41 65.3464 101.227 72.794 96.7421C80.2421 92.2552 88.6715 101.346 88.6715 101.346C88.6715 101.346 100.4 93.0331 105.931 94.8382C111.462 96.6428 106.558 102.861 106.558 102.861C106.558 102.861 125.442 95.4243 127.534 99.1139C131.426 105.989 111.387 115.114 111.387 115.114C111.387 115.114 120.193 113.245 120.128 117.923C120.031 124.978 99.8736 124.278 99.8736 124.278C99.8736 124.278 107.635 125.232 105.329 129.439C101.193 136.991 58.3018 133.41 58.3018 133.41ZM179.77 12.3146C179.77 12.3146 172.263 10.3025 169.675 27.4911C167.087 44.6793 167.069 54.0944 167.069 54.0944C167.069 54.0944 166.118 57.8317 163.327 56.5233C160.536 55.2145 155.732 50.4758 152.475 52.7005C149.098 55.0093 149.261 59.5775 152.013 65.4556C154.765 71.3338 160.32 84.4224 160.819 85.6118C161.31 86.7733 161.208 88.7664 159.165 88.1773C157.12 87.5881 144.008 80.1396 140.845 86.5621C137.674 92.9865 148.037 108.099 149.137 109.771C150.236 111.442 150.143 112.349 149.422 113.095C148.702 113.841 144.528 110.922 140.715 108.952C136.901 106.983 132.129 105.375 130.612 109.234C129.096 113.093 132.471 125.898 151.211 142.275L160.392 149.295L171.19 145.023C193.738 134.474 200.536 123.103 200.147 118.976C199.759 114.85 194.73 115.075 190.516 115.911C186.303 116.747 181.484 118.395 180.998 117.478C180.513 116.562 180.67 115.668 182.191 114.364C183.712 113.06 197.86 101.411 196.596 94.3572C195.334 87.3105 180.669 90.8386 178.542 90.8322C176.416 90.833 176.877 88.8936 177.668 87.912C178.477 86.9106 187.452 75.8688 191.723 70.9808C195.997 66.1003 197.42 61.7508 194.815 58.5985C192.307 55.5547 186.371 58.7876 183.329 59.273C180.285 59.7584 180.41 55.8984 180.41 55.8984C180.41 55.8984 183.01 46.8459 185.287 29.614C187.564 12.3818 179.603 12.2773 179.603 12.2773" fill="#DADEE6"/>
<path d="M160.2 146.88C161.918 134.23 164.442 116.774 167.301 97.5027C170.156 78.24 172.72 60.7962 174.516 48.1553C175.405 41.8481 176.122 36.7382 176.622 33.1885C176.869 31.4331 177.064 30.0657 177.199 29.1176C177.265 28.6666 177.32 28.3151 177.356 28.0592C177.398 27.8237 177.424 27.6973 177.424 27.6973C177.424 27.6973 177.419 27.8181 177.395 28.0636C177.366 28.3181 177.326 28.6725 177.276 29.127C177.157 30.078 176.985 31.4469 176.769 33.2087C176.328 36.7505 175.651 41.872 174.788 48.1945C173.071 60.8447 170.545 78.293 167.692 97.5628C164.839 116.832 162.268 134.278 160.48 146.917" fill="white"/>
<path d="M158.93 59.6081C158.956 59.5935 159.137 59.8219 159.464 60.2576C159.788 60.6863 160.235 61.3217 160.777 62.1112C161.861 63.6972 163.303 65.9198 164.848 68.4139C166.351 70.8667 167.718 73.087 168.769 74.8014C169.241 75.5569 169.638 76.1982 169.967 76.7303C170.254 77.1843 170.399 77.4447 170.373 77.4593C170.347 77.4735 170.159 77.2474 169.834 76.8183C169.517 76.3878 169.069 75.7528 168.533 74.9543C167.461 73.3575 166.05 71.1118 164.514 68.6225L160.55 62.269C160.077 61.5135 159.674 60.874 159.344 60.342C159.056 59.8808 158.911 59.6208 158.93 59.6081ZM171.442 77.3153C171.381 77.2269 175.842 74.0522 181.412 70.2372C186.98 66.4152 191.55 63.3909 191.611 63.4793C191.672 63.5678 187.208 66.7354 181.64 70.5574C176.065 74.3812 171.503 77.4037 171.442 77.3153ZM165.722 106.71C165.715 106.682 166.001 106.576 166.513 106.394C167.111 106.196 167.847 105.955 168.712 105.663C170.568 105.047 173.134 104.181 175.928 103.127C178.722 102.08 181.221 101.045 183.03 100.285C183.871 99.9324 184.583 99.6299 185.169 99.3836C185.673 99.1736 185.961 99.0743 185.974 99.0934C185.988 99.1195 185.721 99.2657 185.236 99.5224C184.749 99.7724 184.036 100.128 183.144 100.538C181.367 101.365 178.872 102.444 176.07 103.493C173.27 104.548 170.684 105.368 168.797 105.925C167.853 106.2 167.085 106.405 166.56 106.539C166.027 106.674 165.73 106.738 165.722 106.71ZM150.88 93.1768C150.897 93.1574 151.121 93.3215 151.521 93.6405C152.073 94.0945 152.62 94.5535 153.163 95.0176C154.952 96.5518 156.728 98.1022 158.489 99.6687C160.553 101.501 162.41 103.179 163.742 104.407C164.27 104.891 164.791 105.382 165.305 105.88C165.668 106.231 165.86 106.442 165.842 106.461C165.825 106.481 165.601 106.316 165.201 105.997C164.809 105.676 164.248 105.206 163.56 104.62C162.181 103.442 160.296 101.801 158.233 99.969C156.17 98.1367 154.313 96.4589 152.988 95.2288C152.46 94.7455 151.939 94.2545 151.425 93.7562C151.054 93.407 150.856 93.1984 150.88 93.1768ZM142.531 118.484C142.548 118.465 142.837 118.679 143.344 119.089C143.902 119.553 144.613 120.139 145.455 120.849C147.759 122.803 150.049 124.774 152.325 126.761C154.993 129.089 157.396 131.211 159.121 132.761C159.799 133.378 160.477 133.996 161.153 134.616C161.623 135.058 161.88 135.318 161.863 135.338C161.846 135.357 161.556 135.143 161.05 134.733C160.491 134.27 159.78 133.683 158.939 132.974C156.634 131.02 154.344 129.049 152.069 127.061C149.401 124.733 146.998 122.611 145.273 121.062C144.461 120.322 143.777 119.698 143.241 119.206C142.763 118.766 142.514 118.504 142.531 118.484ZM161.51 134.804C161.503 134.776 161.86 134.629 162.504 134.381C163.226 134.114 164.151 133.769 165.262 133.36C167.588 132.49 170.805 131.286 174.312 129.854C177.821 128.429 180.97 127.056 183.243 126.044C184.141 125.65 185.037 125.253 185.932 124.853C186.57 124.578 186.927 124.43 186.941 124.456C186.956 124.482 186.617 124.67 186 124.992C185.383 125.314 184.478 125.766 183.356 126.297C180.431 127.691 177.465 128.998 174.462 130.218C171.459 131.439 168.422 132.574 165.353 133.619C164.173 134.017 163.216 134.326 162.551 134.526C161.893 134.725 161.523 134.823 161.51 134.804Z" fill="white"/>
<path d="M163.242 5.34725C163.067 5.28436 162.89 5.22749 162.711 5.17675C162.651 5.15958 162.593 5.14167 162.534 5.12638C162.471 5.11033 162.408 5.09504 162.344 5.07974C162.28 5.06421 162.216 5.04916 162.151 5.03459C162.09 5.02116 162.028 5.0096 161.966 4.99766C161.838 4.9733 161.709 4.95179 161.58 4.93311C161.363 4.903 161.145 4.88085 160.926 4.8667C160.88 4.86409 160.834 4.85961 160.788 4.85775C160.654 4.8514 160.519 4.84767 160.383 4.84767H98.0931C97.5247 4.84656 96.9576 4.90382 96.4008 5.01855C92.8462 5.74534 90.1101 8.72154 89.7373 12.3962C89.7085 12.6819 89.6941 12.969 89.6943 13.2562V140.71C89.6943 144.35 92.0034 147.448 95.2356 148.619C95.2502 148.624 95.2644 148.629 95.279 148.633C95.4392 148.69 95.6021 148.742 95.7661 148.789C95.8255 148.806 95.8842 148.824 95.9443 148.839C96.0074 148.855 96.0706 148.87 96.1333 148.886C96.2586 148.917 96.3848 148.944 96.5118 148.967C96.5813 148.981 96.6504 148.994 96.7198 149.004L96.8973 149.032C96.972 149.043 97.0475 149.052 97.1241 149.061C97.179 149.067 97.2339 149.073 97.2899 149.079C97.3762 149.087 97.4636 149.093 97.5511 149.099C97.597 149.101 97.643 149.106 97.6889 149.108C97.823 149.114 97.9583 149.117 98.0942 149.117H160.385C160.672 149.118 160.958 149.103 161.244 149.074C165.197 148.673 168.34 145.526 168.742 141.568C168.77 141.285 168.785 140.998 168.785 140.708V13.2562C168.783 9.6166 166.474 6.5184 163.242 5.34725Z" fill="#E9EBF0"/>
<path fill-rule="evenodd" clip-rule="evenodd" d="M107.799 90.5203C107.699 90.5727 107.586 90.596 107.473 90.5875C107.36 90.579 107.252 90.539 107.161 90.4722C107.069 90.4054 106.999 90.3143 106.957 90.2094C106.915 90.1044 106.903 89.9898 106.923 89.8785L107.249 88.009L105.874 86.693C105.792 86.6146 105.733 86.5145 105.705 86.4044C105.677 86.2942 105.681 86.1784 105.716 86.0702C105.75 85.962 105.815 85.8659 105.902 85.7927C105.989 85.7195 106.095 85.6724 106.208 85.6566L108.117 85.3838L108.979 83.6668C109.029 83.5658 109.106 83.4806 109.202 83.4211C109.298 83.3616 109.409 83.3301 109.521 83.3301C109.634 83.3301 109.745 83.3616 109.841 83.4211C109.937 83.4806 110.014 83.5658 110.064 83.6668L110.926 85.3838L112.835 85.6566C112.948 85.6722 113.054 85.7193 113.141 85.7925C113.228 85.8656 113.293 85.9618 113.328 86.0701C113.363 86.1783 113.366 86.2942 113.338 86.4044C113.31 86.5146 113.251 86.6146 113.169 86.693L111.794 88.009L112.12 89.8789C112.14 89.9902 112.128 90.1048 112.086 90.2097C112.044 90.3147 111.974 90.4057 111.882 90.4726C111.791 90.5394 111.683 90.5793 111.57 90.5878C111.457 90.5963 111.344 90.5731 111.244 90.5206L109.521 89.6316L107.799 90.5203ZM117.512 90.5203C117.412 90.5727 117.299 90.596 117.186 90.5875C117.073 90.579 116.965 90.539 116.874 90.4722C116.782 90.4054 116.712 90.3143 116.67 90.2094C116.628 90.1044 116.616 89.9898 116.636 89.8785L116.962 88.009L115.587 86.693C115.505 86.6146 115.446 86.5145 115.418 86.4044C115.39 86.2942 115.394 86.1784 115.429 86.0702C115.464 85.962 115.528 85.8659 115.615 85.7927C115.702 85.7195 115.808 85.6724 115.921 85.6566L117.83 85.3838L118.692 83.6668C118.742 83.5658 118.819 83.4806 118.915 83.4211C119.011 83.3616 119.122 83.3301 119.234 83.3301C119.347 83.3301 119.458 83.3616 119.554 83.4211C119.65 83.4806 119.727 83.5658 119.777 83.6668L120.639 85.3838L122.548 85.6566C122.661 85.6722 122.767 85.7193 122.854 85.7925C122.941 85.8656 123.006 85.9618 123.041 86.0701C123.076 86.1783 123.079 86.2942 123.051 86.4044C123.023 86.5146 122.964 86.6146 122.882 86.693L121.507 88.009L121.833 89.8789C121.853 89.9902 121.841 90.1048 121.799 90.2097C121.757 90.3147 121.687 90.4057 121.595 90.4726C121.504 90.5394 121.396 90.5793 121.283 90.5878C121.17 90.5963 121.057 90.5731 120.957 90.5206L119.234 89.6316L117.512 90.5203ZM127.225 90.5203C127.125 90.5727 127.012 90.596 126.899 90.5875C126.786 90.579 126.678 90.539 126.587 90.4722C126.495 90.4054 126.425 90.3143 126.383 90.2094C126.341 90.1044 126.329 89.9898 126.349 89.8785L126.675 88.009L125.3 86.693C125.218 86.6146 125.159 86.5145 125.131 86.4044C125.103 86.2942 125.107 86.1784 125.142 86.0702C125.177 85.962 125.241 85.8659 125.328 85.7927C125.415 85.7195 125.521 85.6724 125.634 85.6566L127.543 85.3838L128.405 83.6668C128.455 83.5658 128.532 83.4806 128.628 83.4211C128.724 83.3616 128.835 83.3301 128.947 83.3301C129.06 83.3301 129.171 83.3616 129.267 83.4211C129.363 83.4806 129.44 83.5658 129.49 83.6668L130.352 85.3838L132.261 85.6566C132.374 85.6722 132.48 85.7193 132.567 85.7925C132.654 85.8656 132.719 85.9618 132.754 86.0701C132.789 86.1783 132.792 86.2942 132.764 86.4044C132.736 86.5146 132.677 86.6146 132.595 86.693L131.22 88.009L131.546 89.8789C131.566 89.9902 131.554 90.1048 131.512 90.2097C131.47 90.3147 131.4 90.4057 131.308 90.4726C131.217 90.5394 131.109 90.5793 130.996 90.5878C130.883 90.5963 130.77 90.5731 130.67 90.5206L128.947 89.6316L127.225 90.5203ZM137.312 90.5203C137.211 90.5727 137.098 90.596 136.986 90.5875C136.873 90.579 136.765 90.539 136.673 90.4722C136.582 90.4054 136.511 90.3143 136.469 90.2094C136.427 90.1044 136.415 89.9898 136.435 89.8785L136.762 88.009L135.387 86.693C135.304 86.6146 135.246 86.5145 135.218 86.4044C135.19 86.2942 135.193 86.1784 135.228 86.0702C135.263 85.962 135.328 85.8659 135.415 85.7927C135.502 85.7195 135.608 85.6724 135.721 85.6566L137.63 85.3838L138.491 83.6668C138.541 83.5658 138.619 83.4806 138.715 83.4211C138.811 83.3616 138.921 83.3301 139.034 83.3301C139.147 83.3301 139.258 83.3616 139.354 83.4211C139.449 83.4806 139.527 83.5658 139.577 83.6668L140.439 85.3838L142.348 85.6566C142.46 85.6722 142.566 85.7193 142.654 85.7925C142.741 85.8656 142.805 85.9618 142.84 86.0701C142.875 86.1783 142.879 86.2942 142.851 86.4044C142.823 86.5146 142.764 86.6146 142.682 86.693L141.306 88.009L141.633 89.8789C141.653 89.9902 141.641 90.1048 141.599 90.2097C141.557 90.3147 141.486 90.4057 141.395 90.4726C141.304 90.5394 141.195 90.5793 141.083 90.5878C140.97 90.5963 140.857 90.5731 140.756 90.5206L139.034 89.6316L137.312 90.5203ZM147.398 90.5203C147.298 90.5727 147.185 90.596 147.072 90.5875C146.959 90.579 146.851 90.539 146.76 90.4722C146.669 90.4054 146.598 90.3143 146.556 90.2094C146.514 90.1044 146.502 89.9898 146.522 89.8785L146.848 88.009L145.473 86.693C145.391 86.6146 145.332 86.5145 145.304 86.4044C145.276 86.2942 145.28 86.1784 145.315 86.0702C145.35 85.962 145.414 85.8659 145.502 85.7927C145.589 85.7195 145.695 85.6724 145.807 85.6566L147.716 85.3838L148.578 83.6668C148.628 83.5658 148.705 83.4806 148.801 83.4211C148.897 83.3616 149.008 83.3301 149.121 83.3301C149.234 83.3301 149.344 83.3616 149.44 83.4211C149.536 83.4806 149.613 83.5658 149.663 83.6668L150.525 85.3838L152.434 85.6566C152.547 85.6722 152.653 85.7193 152.74 85.7925C152.827 85.8656 152.892 85.9618 152.927 86.0701C152.962 86.1783 152.965 86.2942 152.937 86.4044C152.909 86.5146 152.851 86.6146 152.768 86.693L151.393 88.009L151.719 89.8789C151.739 89.9902 151.728 90.1048 151.686 90.2097C151.644 90.3147 151.573 90.4057 151.482 90.4726C151.39 90.5394 151.282 90.5793 151.169 90.5878C151.056 90.5963 150.943 90.5731 150.843 90.5206L149.121 89.6316L147.398 90.5203Z" fill="white"/>
<path d="M225.552 54.5974C226.555 54.5974 227.368 55.4093 227.368 56.411C227.368 57.4126 226.555 58.2246 225.552 58.2246C224.549 58.2246 223.736 57.4126 223.736 56.411C223.736 55.4093 224.549 54.5974 225.552 54.5974Z" fill="#E1E4E5"/>
<path d="M9.99956 92.2985C11.0025 92.2985 11.8155 93.1105 11.8155 94.1122C11.8155 95.1138 11.0025 95.9258 9.99956 95.9258C8.99663 95.9258 8.18359 95.1138 8.18359 94.1122C8.18359 93.1105 8.99663 92.2985 9.99956 92.2985Z" fill="#E1E4E5"/>
<path d="M174.747 29.2282C175.75 29.2282 176.563 30.0402 176.563 31.0418C176.563 32.0435 175.75 32.8555 174.747 32.8555C173.744 32.8555 172.931 32.0435 172.931 31.0418C172.931 30.0402 173.744 29.2282 174.747 29.2282Z" fill="#E1E4E5"/>
<path d="M197.049 62.1068L194.225 59.2858L197.049 56.4648L199.874 59.2858L197.049 62.1068Z" stroke="#E1E4E5" stroke-width="4" stroke-linecap="round" stroke-linejoin="round"/>
<path fill-rule="evenodd" clip-rule="evenodd" d="M73.965 92.4004H30.1918C29.2761 92.3998 28.3945 92.7469 27.7256 93.3714C27.0568 93.9959 26.6507 94.8511 26.5897 95.7635L23.7165 138.781C23.4386 142.941 26.7447 146.47 30.9206 146.47H73.2361C77.412 146.47 80.7182 142.941 80.4402 138.781L77.567 95.7635C77.5061 94.8511 77.1 93.9959 76.4311 93.3714C75.7623 92.7469 74.8806 92.3998 73.965 92.4004Z" fill="#E9EBF0" stroke="#E9EBF0" stroke-width="13.417" stroke-linecap="round" stroke-linejoin="round"/>
<path fill-rule="evenodd" clip-rule="evenodd" d="M118.212 54.4297C117.74 54.6741 117.209 54.7824 116.678 54.7422C116.147 54.7021 115.638 54.5151 115.209 54.2025C114.78 53.89 114.447 53.4643 114.249 52.9736C114.051 52.483 113.995 51.947 114.088 51.4265L115.625 42.6796L109.154 36.5222C108.767 36.155 108.492 35.6869 108.36 35.1715C108.228 34.6561 108.245 34.1143 108.409 33.6082C108.573 33.102 108.878 32.6519 109.287 32.3096C109.697 31.9672 110.195 31.7463 110.725 31.6723L119.709 30.3968L123.765 22.3626C124 21.8901 124.364 21.4924 124.815 21.2144C125.267 20.9364 125.787 20.7891 126.318 20.7891C126.849 20.7891 127.369 20.9364 127.82 21.2144C128.271 21.4924 128.635 21.8901 128.871 22.3626L132.927 30.3968L141.91 31.6723C142.44 31.7463 142.939 31.9672 143.348 32.3096C143.758 32.6519 144.062 33.102 144.226 33.6082C144.39 34.1143 144.407 34.6561 144.275 35.1715C144.144 35.6869 143.869 36.155 143.481 36.5222L137.011 42.6796L138.548 51.4283C138.641 51.9491 138.586 52.4854 138.388 52.9765C138.19 53.4675 137.857 53.8936 137.428 54.2064C136.998 54.5191 136.489 54.706 135.958 54.7458C135.427 54.7856 134.896 54.6768 134.424 54.4316L126.318 50.2723L118.212 54.4297Z" fill="#0084D1"/>
<path fill-rule="evenodd" clip-rule="evenodd" d="M143.831 55.3373C143.658 55.4221 143.464 55.4596 143.27 55.4457C143.076 55.4317 142.891 55.3669 142.734 55.2584C142.577 55.15 142.455 55.0023 142.383 54.8321C142.311 54.6619 142.29 54.4759 142.324 54.2953L142.886 51.2607L140.521 49.1244C140.38 48.9971 140.279 48.8347 140.231 48.6558C140.183 48.477 140.189 48.2891 140.249 48.1135C140.309 47.9378 140.42 47.7817 140.57 47.6629C140.72 47.5441 140.902 47.4675 141.095 47.4418L144.378 46.9993L145.86 44.2119C145.946 44.048 146.079 43.91 146.244 43.8136C146.409 43.7171 146.599 43.666 146.793 43.666C146.987 43.666 147.177 43.7171 147.342 43.8136C147.506 43.91 147.639 44.048 147.726 44.2119L149.208 46.9993L152.49 47.4418C152.684 47.4675 152.866 47.5441 153.015 47.6629C153.165 47.7817 153.276 47.9378 153.336 48.1135C153.396 48.2891 153.402 48.477 153.354 48.6558C153.306 48.8347 153.205 48.9971 153.064 49.1244L150.7 51.2607L151.261 54.296C151.296 54.4766 151.275 54.6627 151.203 54.8331C151.131 55.0034 151.009 55.1513 150.852 55.2598C150.695 55.3683 150.509 55.4331 150.315 55.4469C150.121 55.4607 149.927 55.423 149.754 55.3379L146.793 53.8949L143.831 55.3373Z" fill="#0084D1"/>
<path fill-rule="evenodd" clip-rule="evenodd" d="M44.3392 133.974C43.9174 134.194 43.4424 134.291 42.968 134.255C42.4937 134.219 42.0389 134.051 41.6552 133.77C41.2716 133.489 40.9743 133.107 40.7972 132.666C40.62 132.225 40.5701 131.743 40.6529 131.275L42.0266 123.414L36.2433 117.88C35.8972 117.55 35.6512 117.13 35.5334 116.666C35.4157 116.203 35.4309 115.716 35.5775 115.261C35.724 114.806 35.996 114.402 36.3621 114.094C36.7282 113.786 37.1737 113.588 37.6475 113.521L45.6772 112.375L49.3024 105.154C49.5131 104.73 49.8385 104.372 50.2417 104.123C50.6449 103.873 51.11 103.74 51.5845 103.74C52.059 103.74 52.5241 103.873 52.9273 104.123C53.3306 104.372 53.6559 104.73 53.8666 105.154L57.4918 112.375L65.5215 113.521C65.9954 113.588 66.4409 113.786 66.807 114.094C67.1731 114.402 67.445 114.806 67.5915 115.261C67.7381 115.716 67.7534 116.203 67.6356 116.666C67.5179 117.13 67.2719 117.55 66.9258 117.88L61.1424 123.414L62.5161 131.277C62.5996 131.745 62.5501 132.227 62.3732 132.668C62.1962 133.11 61.8989 133.493 61.515 133.774C61.1312 134.055 60.6761 134.223 60.2014 134.259C59.7268 134.294 59.2516 134.197 58.8298 133.976L51.5845 130.238L44.3392 133.974Z" fill="#0084D1"/>
<path fill-rule="evenodd" clip-rule="evenodd" d="M221.44 147.074H188.352C183.603 147.074 179.828 143.089 180.093 138.356L181.786 107.91C182.112 102.072 186.945 97.5059 192.799 97.5059H216.995C222.848 97.5059 227.682 102.072 228.008 107.91L229.701 138.353C229.963 143.089 226.188 147.074 221.44 147.074Z" fill="#E9EBF0" stroke="#E9EBF0" stroke-width="10.25" stroke-linecap="round" stroke-linejoin="round"/>
<path d="M107.181 118.398H149.768C150.594 118.398 151.263 119.067 151.263 119.891C151.263 120.715 150.594 121.383 149.768 121.383H107.181C106.355 121.383 105.686 120.715 105.686 119.891C105.686 119.067 106.355 118.398 107.181 118.398Z" fill="white"/>
<path d="M107.18 109.441H146.406C147.231 109.441 147.9 110.11 147.9 110.934C147.9 111.758 147.231 112.426 146.406 112.426H107.18C106.355 112.426 105.686 111.758 105.686 110.934C105.686 110.11 106.355 109.441 107.18 109.441Z" fill="white"/>
<path d="M107.181 100.49H151.637C152.462 100.49 153.131 101.158 153.131 101.983C153.131 102.807 152.462 103.475 151.637 103.475H107.181C106.355 103.475 105.686 102.807 105.686 101.983C105.686 101.158 106.355 100.49 107.181 100.49Z" fill="white"/>
<path d="M179.817 32.6172H224.422V77.1648H179.817V32.6172Z" fill="#E9EBF0"/>
<path fill-rule="evenodd" clip-rule="evenodd" d="M202.431 32.8518C197.065 32.8518 192.118 33.2937 188.148 33.8176C184.574 34.2888 181.88 36.98 181.408 40.5486C180.883 44.5141 180.441 49.4543 180.441 54.8136C180.441 60.1731 180.883 65.1133 181.408 69.0789C181.88 72.6474 184.574 75.3387 188.148 75.8098C192.118 76.3337 197.065 76.7757 202.431 76.7757C207.797 76.7757 212.744 76.3337 216.715 75.8098C220.288 75.3387 222.982 72.6474 223.454 69.0789C223.979 65.1133 224.421 60.1731 224.421 54.8136C224.421 49.4543 223.979 44.5141 223.454 40.5486C222.982 36.98 220.288 34.2888 216.715 33.8176C212.744 33.2937 207.797 32.8518 202.431 32.8518ZM187.428 28.3744C181.389 29.1707 176.755 33.7989 175.958 39.8297C175.41 43.9757 174.943 49.162 174.943 54.8136C174.943 60.4654 175.41 65.6517 175.958 69.7977C176.755 75.8285 181.389 80.4567 187.428 81.253C191.579 81.8006 196.772 82.2661 202.431 82.2661C208.09 82.2661 213.283 81.8006 217.434 81.253C223.473 80.4567 228.107 75.8285 228.904 69.7977C229.453 65.6517 229.919 60.4654 229.919 54.8136C229.919 49.162 229.453 43.9757 228.904 39.8297C228.107 33.7989 223.473 29.1707 217.434 28.3744C213.283 27.8269 208.09 27.3613 202.431 27.3613C196.772 27.3613 191.579 27.8269 187.428 28.3744Z" fill="#E9EBF0"/>
<path fill-rule="evenodd" clip-rule="evenodd" d="M196.211 68.0987C195.836 68.2939 195.414 68.3804 194.992 68.3483C194.57 68.3163 194.166 68.1669 193.825 67.9173C193.484 67.6677 193.22 67.3277 193.063 66.9358C192.905 66.5439 192.861 66.1159 192.935 65.7001L194.155 58.7141L189.016 53.7963C188.708 53.503 188.49 53.1291 188.385 52.7175C188.28 52.3059 188.294 51.8732 188.424 51.4689C188.554 51.0646 188.796 50.7052 189.121 50.4317C189.447 50.1583 189.843 49.9819 190.264 49.9228L197.4 48.904L200.621 42.4872C200.808 42.1098 201.098 41.7922 201.456 41.5702C201.814 41.3481 202.227 41.2305 202.649 41.2305C203.071 41.2305 203.484 41.3481 203.843 41.5702C204.201 41.7922 204.49 42.1098 204.677 42.4872L207.899 48.904L215.035 49.9228C215.456 49.9819 215.852 50.1583 216.177 50.4317C216.502 50.7052 216.744 51.0646 216.874 51.4689C217.004 51.8732 217.018 52.3059 216.913 52.7175C216.809 53.1291 216.59 53.503 216.283 53.7963L211.143 58.7141L212.364 65.7016C212.438 66.1175 212.394 66.5459 212.237 66.9381C212.08 67.3302 211.815 67.6706 211.474 67.9203C211.133 68.1701 210.729 68.3194 210.307 68.3512C209.885 68.383 209.463 68.2961 209.088 68.1003L202.649 64.7783L196.211 68.0987Z" fill="#0084D1"/>
<path fill-rule="evenodd" clip-rule="evenodd" d="M193.743 137.425C193.631 137.482 193.506 137.507 193.38 137.497C193.255 137.488 193.134 137.444 193.033 137.372C192.932 137.299 192.853 137.2 192.806 137.085C192.759 136.971 192.746 136.846 192.768 136.725L193.131 134.688L191.602 133.254C191.51 133.169 191.445 133.059 191.414 132.939C191.383 132.819 191.387 132.693 191.426 132.575C191.465 132.457 191.537 132.353 191.633 132.273C191.73 132.193 191.848 132.142 191.973 132.125L194.096 131.827L195.055 129.956C195.111 129.846 195.197 129.754 195.303 129.689C195.41 129.624 195.533 129.59 195.658 129.59C195.784 129.59 195.907 129.624 196.013 129.689C196.12 129.754 196.206 129.846 196.262 129.956L197.22 131.827L199.344 132.125C199.469 132.142 199.587 132.193 199.683 132.273C199.78 132.353 199.852 132.457 199.891 132.575C199.93 132.693 199.934 132.819 199.903 132.939C199.871 133.059 199.806 133.169 199.715 133.254L198.186 134.688L198.549 136.726C198.571 136.847 198.558 136.972 198.511 137.086C198.464 137.201 198.386 137.3 198.284 137.373C198.183 137.445 198.062 137.489 197.937 137.498C197.811 137.507 197.686 137.482 197.574 137.425L195.658 136.456L193.743 137.425Z" fill="#F4CF4E"/>
<path fill-rule="evenodd" clip-rule="evenodd" d="M212.021 137.425C211.909 137.482 211.784 137.507 211.658 137.497C211.533 137.488 211.413 137.444 211.311 137.372C211.21 137.299 211.131 137.2 211.084 137.085C211.038 136.971 211.024 136.846 211.046 136.725L211.409 134.688L209.88 133.254C209.789 133.169 209.724 133.059 209.693 132.939C209.661 132.819 209.665 132.693 209.704 132.575C209.743 132.457 209.815 132.353 209.912 132.273C210.008 132.193 210.126 132.142 210.252 132.125L212.375 131.827L213.333 129.956C213.389 129.846 213.475 129.754 213.582 129.689C213.688 129.624 213.811 129.59 213.937 129.59C214.062 129.59 214.185 129.624 214.292 129.689C214.398 129.754 214.484 129.846 214.54 129.956L215.499 131.827L217.622 132.125C217.747 132.142 217.865 132.193 217.962 132.273C218.059 132.353 218.13 132.457 218.169 132.575C218.208 132.693 218.212 132.819 218.181 132.939C218.15 133.059 218.085 133.169 217.993 133.254L216.464 134.688L216.827 136.726C216.849 136.847 216.836 136.972 216.789 137.086C216.743 137.201 216.664 137.3 216.562 137.373C216.461 137.445 216.341 137.489 216.215 137.498C216.09 137.507 215.964 137.482 215.852 137.425L213.937 136.456L212.021 137.425Z" fill="#F4CF4E"/>
<path fill-rule="evenodd" clip-rule="evenodd" d="M203.493 127.688C203.381 127.745 203.256 127.77 203.13 127.761C203.005 127.752 202.884 127.708 202.783 127.635C202.682 127.563 202.603 127.463 202.556 127.349C202.509 127.235 202.496 127.11 202.518 126.989L202.881 124.952L201.352 123.518C201.26 123.432 201.195 123.323 201.164 123.203C201.133 123.083 201.137 122.957 201.176 122.839C201.215 122.721 201.287 122.616 201.383 122.537C201.48 122.457 201.598 122.405 201.723 122.388L203.846 122.091L204.805 120.22C204.861 120.11 204.947 120.017 205.053 119.953C205.16 119.888 205.283 119.854 205.408 119.854C205.534 119.854 205.657 119.888 205.763 119.953C205.87 120.017 205.956 120.11 206.012 120.22L206.97 122.091L209.094 122.388C209.219 122.405 209.337 122.457 209.433 122.537C209.53 122.616 209.602 122.721 209.641 122.839C209.68 122.957 209.684 123.083 209.653 123.203C209.621 123.323 209.556 123.432 209.465 123.518L207.936 124.952L208.299 126.989C208.321 127.111 208.308 127.235 208.261 127.35C208.214 127.464 208.136 127.563 208.034 127.636C207.933 127.709 207.812 127.753 207.687 127.762C207.561 127.771 207.436 127.746 207.324 127.689L205.408 126.72L203.493 127.688Z" fill="#F4CF4E"/>
<path fill-rule="evenodd" clip-rule="evenodd" d="M88.9955 27.2934H86.6441C86.3721 27.293 86.1113 27.1847 85.919 26.9924C85.7267 26.8 85.6185 26.5392 85.6183 26.2672V23.9167C85.6183 23.3488 86.0804 22.8913 86.6441 22.8913H88.9955C89.5592 22.8913 90.022 23.3532 90.022 23.9167V26.2672C90.0224 26.4021 89.9961 26.5357 89.9447 26.6604C89.8932 26.785 89.8176 26.8983 89.7222 26.9937C89.6268 27.0891 89.5135 27.1646 89.3888 27.2161C89.2641 27.2675 89.1304 27.2938 88.9955 27.2934ZM80.8433 27.2934H78.4919C78.2201 27.2922 77.9597 27.1837 77.7676 26.9915C77.5755 26.7993 77.4671 26.539 77.4662 26.2672V23.9167C77.4662 23.3488 77.9282 22.8913 78.4919 22.8913H80.8433C81.407 22.8913 81.8698 23.3532 81.8698 23.9167V26.2672C81.8686 26.539 81.7601 26.7994 81.5678 26.9916C81.3756 27.1837 81.1152 27.2922 80.8433 27.2934ZM72.6867 27.2934H70.3353C70.0634 27.2922 69.803 27.1837 69.6107 26.9916C69.4185 26.7994 69.3099 26.539 69.3088 26.2672V23.9167C69.3088 23.3488 69.7716 22.8913 70.3353 22.8913H72.6867C73.2504 22.8913 73.7125 23.3532 73.7125 23.9167V26.2672C73.7128 26.402 73.6866 26.5356 73.6352 26.6602C73.5838 26.7848 73.5082 26.8981 73.4129 26.9934C73.3176 27.0888 73.2043 27.1644 73.0797 27.2158C72.9551 27.2673 72.8215 27.2937 72.6867 27.2934ZM64.5345 27.2934H62.1831C61.9112 27.2922 61.6508 27.1837 61.4585 26.9916C61.2663 26.7994 61.1578 26.539 61.1566 26.2672V23.9167C61.1566 23.3488 61.6194 22.8913 62.1831 22.8913H64.5345C65.1026 22.8913 65.5654 23.3532 65.5654 23.9167V26.2672C65.5623 26.5392 65.4526 26.7991 65.2598 26.991C65.067 27.1829 64.8065 27.2915 64.5345 27.2934ZM56.3822 27.2934H54.0309C53.7582 27.2934 53.4967 27.1854 53.3035 26.9931C53.1103 26.8008 53.0012 26.5398 53 26.2672V23.9167C53 23.3488 53.4621 22.8913 54.0309 22.8913H56.3822C56.9459 22.8913 57.408 23.3532 57.408 23.9167V26.2672C57.408 26.8307 56.9459 27.2934 56.3822 27.2934ZM80.545 18.4073H78.1936C77.9217 18.4061 77.6613 18.2976 77.4691 18.1054C77.2768 17.9132 77.1683 17.6529 77.1671 17.3811V15.0254C77.1671 14.4619 77.6299 14 78.1936 14H80.545C81.1131 14 81.5707 14.4619 81.5707 15.0254V17.376C81.5716 17.5111 81.5457 17.6452 81.4946 17.7703C81.4434 17.8954 81.3679 18.0092 81.2726 18.1051C81.1772 18.2009 81.0639 18.277 80.939 18.3288C80.8141 18.3807 80.6802 18.4074 80.545 18.4073ZM72.3928 18.4073H70.0414C69.7695 18.4061 69.5091 18.2976 69.3168 18.1054C69.1246 17.9132 69.016 17.6529 69.0149 17.3811V15.0254C69.0149 14.4619 69.4777 14 70.0414 14H72.3928C72.9565 14 73.4186 14.4619 73.4186 15.0254V17.376C73.4194 17.5111 73.3935 17.6452 73.3423 17.7703C73.2912 17.8954 73.2157 18.0092 73.1204 18.1051C73.025 18.2009 72.9117 18.277 72.7868 18.3288C72.6619 18.3807 72.528 18.4074 72.3928 18.4073ZM64.2405 18.4073H61.8892C61.6165 18.4073 61.355 18.2993 61.1618 18.107C60.9686 17.9146 60.8594 17.6537 60.8583 17.3811V15.0254C60.8596 14.753 60.9689 14.4922 61.162 14.3C61.3552 14.1079 61.6166 14 61.8892 14H64.2405C64.8042 14 65.2663 14.4619 65.2663 15.0254V17.376C65.2665 17.6485 65.1587 17.9101 64.9664 18.1033C64.7742 18.2966 64.5132 18.4059 64.2405 18.4073ZM72.6867 36.8395H70.3353C70.0634 36.8384 69.803 36.7299 69.6107 36.5377C69.4185 36.3455 69.3099 36.0852 69.3088 35.8134V33.4636C69.3088 32.8949 69.7716 32.4374 70.3353 32.4374H72.6867C73.2504 32.4374 73.7125 32.9 73.7125 33.4636V35.8134C73.7128 35.9482 73.6866 36.0817 73.6352 36.2063C73.5838 36.331 73.5082 36.4442 73.4129 36.5396C73.3176 36.6349 73.2043 36.7105 73.0797 36.762C72.9551 36.8135 72.8215 36.8398 72.6867 36.8395ZM64.5345 36.8395H62.1831C61.9112 36.8384 61.6508 36.7299 61.4585 36.5377C61.2663 36.3455 61.1578 36.0852 61.1566 35.8134V33.4636C61.1566 32.8949 61.6194 32.4374 62.1831 32.4374H64.5345C65.1026 32.4374 65.5654 32.9 65.5654 33.4636V35.8134C65.5623 36.0853 65.4526 36.3452 65.2598 36.5371C65.067 36.729 64.8065 36.8376 64.5345 36.8395Z" fill="#FEC62E"/>
</svg>
