<svg width="300" height="165" viewBox="0 0 300 165" fill="none" xmlns="http://www.w3.org/2000/svg">
<path d="M282.293 110.974H260.771C255.498 110.974 251.08 107.413 251.08 102.902C251.08 100.647 252.22 98.63 253.931 97.2057C255.641 95.7814 258.063 94.8318 260.771 94.8318H263.907C266.615 94.8318 269.038 93.8821 270.748 92.4578C272.458 91.0336 273.599 89.0162 273.599 86.7611C273.599 82.3694 269.323 78.6901 263.907 78.6901H198.154C196.448 78.6901 195.352 76.5942 195.352 74.8922C195.352 70.6194 191.219 67.1773 186.089 67.1773H161.614C161.306 67.1814 161.001 67.1245 160.717 67.0099C160.432 66.8954 160.172 66.7256 159.954 66.5103C159.735 66.295 159.561 66.0385 159.443 65.7557C159.324 65.473 159.263 65.1695 159.263 64.863C159.263 64.5565 159.324 64.2531 159.443 63.9703C159.561 63.6875 159.735 63.4311 159.954 63.2158C160.172 63.0005 160.432 62.8306 160.717 62.7161C161.001 62.6016 161.306 62.5447 161.614 62.5487H255.356C259.489 62.5487 263.337 61.1244 266.045 58.8694C268.753 56.6143 270.463 53.4096 270.463 49.9675C270.463 42.965 263.622 37.3867 255.356 37.3867H206.925C199.339 37.3867 191.822 31.5711 184.236 31.5711H157.167C153.225 31.5711 150.03 28.3826 150.03 24.4497C150.03 20.5168 153.225 17.3283 157.167 17.3283H217.729C220.58 17.3283 223.288 16.379 225.14 14.8359C226.993 13.2932 228.133 11.1565 228.133 8.66415C228.133 3.91668 223.43 0 217.729 0H78.1972C75.347 0 72.6389 0.949254 70.7861 2.49239C68.9333 4.03553 67.7929 6.17175 67.7929 8.66415C67.7929 13.4116 72.4963 17.3283 78.1972 17.3283H81.7606C86.4637 17.3283 90.4544 20.533 90.4544 24.5686C90.4544 26.5859 89.4569 28.3664 87.8892 29.6718C86.3211 30.9776 84.1832 31.8084 81.7606 31.8084H64.5149C61.5221 31.8084 58.6715 32.8765 56.6761 34.5381C54.6808 36.1997 53.3982 38.4548 53.3982 41.066C53.3982 46.1697 58.3864 50.2052 64.3724 50.2052H81.9028C87.6041 50.2052 92.3072 54.1219 92.3072 58.8694C92.3072 61.2429 91.1671 63.3795 89.3143 64.9223C87.4616 66.4654 84.896 67.4147 82.0453 67.4147H66.3677C63.8022 67.4147 61.5221 68.2455 59.8115 69.6697C58.1013 71.094 57.1038 72.9933 57.1038 75.1296C57.1038 79.4024 61.237 82.8444 66.3677 82.8444H79.0525C86.3211 82.8444 92.1646 87.7104 92.1646 93.7637C92.1646 96.7307 90.7395 99.5792 88.3165 101.478C85.8935 103.496 82.6156 104.683 79.0525 104.683H61.3796C57.8162 104.683 54.5382 105.87 52.2578 107.888C49.8348 109.787 48.4097 112.516 48.4097 115.484C48.4097 121.418 54.2531 126.284 61.3796 126.284H115.96C121.983 126.284 127.902 129.607 133.925 129.607H143.902C147.68 129.607 150.742 132.663 150.742 136.432C150.742 140.201 147.68 143.257 143.902 143.257H119.672C116.536 143.257 113.829 144.325 111.833 145.986C109.838 147.648 108.555 150.022 108.555 152.514C108.555 157.618 113.544 161.772 119.672 161.772H267.898C271.033 161.772 273.741 160.704 275.737 159.042C277.732 157.381 279.015 155.007 279.015 152.514C279.015 147.411 274.026 143.257 267.898 143.257H263.48C258.919 143.257 255.356 140.171 255.356 136.491C255.356 134.592 256.211 132.931 257.779 131.744C259.204 130.557 261.342 129.726 263.622 129.726H282.293C285.428 129.726 288.136 128.658 290.132 126.996C292.127 125.335 293.41 122.961 293.41 120.468C293.41 115.127 288.422 110.974 282.293 110.974Z" fill="white"/>
<path fill-rule="evenodd" clip-rule="evenodd" d="M174.139 88.125V136.952C174.139 142.324 178.543 146.718 183.926 146.718H252.44C257.823 146.718 262.228 142.324 262.228 136.952V88.125" fill="#E1E4E5"/>
<path fill-rule="evenodd" clip-rule="evenodd" d="M177.016 143.849L206.839 114.094L177.016 143.849Z" fill="white"/>
<path fill-rule="evenodd" clip-rule="evenodd" d="M229.732 114.299L259.35 143.849L229.732 114.299Z" fill="white"/>
<path d="M177.015 143.849L206.838 114.094" stroke="white" stroke-width="1.43144"/>
<path d="M229.731 114.297L259.349 143.847" stroke="white" stroke-width="1.43144"/>
<path d="M174.138 88.127V136.954C174.138 142.326 178.543 146.72 183.926 146.72H252.439C257.823 146.72 262.227 142.326 262.227 136.954V88.127" stroke="#E1E4E5" stroke-width="1.43144"/>
<path fill-rule="evenodd" clip-rule="evenodd" d="M174.139 87.1505C174.139 90.08 175.607 92.5213 178.054 94.4745L207.417 114.494C214.268 118.888 222.587 118.888 229.439 114.494L258.802 94.9627C260.759 92.5213 262.228 90.08 262.228 87.1505C262.232 85.9949 262.008 84.8499 261.567 83.7813C261.126 82.7128 260.477 81.742 259.658 80.9249C258.839 80.1078 257.866 79.4606 256.795 79.0206C255.724 78.5806 254.577 78.3566 253.419 78.3614H182.947C181.789 78.3566 180.642 78.5806 179.571 79.0206C178.5 79.4606 177.527 80.1078 176.708 80.9249C175.889 81.742 175.24 82.7128 174.799 83.7814C174.358 84.8499 174.134 85.9949 174.139 87.1505Z" fill="white" stroke="#E1E4E5" stroke-width="1.43144"/>
<path d="M100.282 11.6332V48.9668C100.282 52.1719 102.509 54.7708 105.257 54.7708H156.248C157.206 54.7708 158.145 55.0947 158.954 55.7014L166.458 61.3743C169.766 63.8767 174.138 61.1057 174.138 56.501V11.6262C174.138 8.42115 171.911 5.82227 169.164 5.82227H105.262C102.509 5.82926 100.282 8.42784 100.282 11.6332Z" fill="#E9EBF0" fill-opacity="0.99"/>
<path d="M158.414 32.8264H115.928C114.598 32.8264 113.516 31.7467 113.516 30.4191C113.516 29.0915 114.598 28.0115 115.928 28.0115H158.414C159.744 28.0115 160.827 29.0915 160.827 30.4191C160.827 31.7467 159.744 32.8264 158.414 32.8264ZM134.929 22.4828H115.774C114.444 22.4828 113.361 21.4031 113.361 20.0752C113.361 18.7477 114.444 17.668 115.774 17.668H134.929C136.26 17.668 137.342 18.7477 137.342 20.0752C137.342 21.4031 136.26 22.4828 134.929 22.4828ZM115.928 38.6738H158.414C159.744 38.6738 160.827 39.7535 160.827 41.0811C160.827 42.4086 159.744 43.4886 158.414 43.4886H115.928C114.598 43.4886 113.516 42.4086 113.516 41.0811C113.516 39.7535 114.598 38.6738 115.928 38.6738Z" fill="white"/>
<path d="M259.535 20.8422V58.1755C259.535 61.3808 257.308 63.9797 254.56 63.9797H203.568C202.611 63.9797 201.672 64.3036 200.862 64.9101L193.359 70.5832C190.051 73.0854 185.679 70.3144 185.679 65.7097V20.8352C185.679 17.6298 187.906 15.0312 190.653 15.0312H254.554C257.308 15.0379 259.535 17.6368 259.535 20.8422Z" fill="#E9EBF0" fill-opacity="0.99"/>
<path d="M201.404 42.0373H243.889C245.22 42.0373 246.302 40.9576 246.302 39.6297C246.302 38.3021 245.22 37.2224 243.889 37.2224H201.404C200.073 37.2224 198.991 38.3021 198.991 39.6297C198.991 40.9576 200.073 42.0373 201.404 42.0373ZM201.546 31.6935H220.701C222.032 31.6935 223.114 30.6138 223.114 29.2862C223.114 27.9586 222.032 26.8789 220.701 26.8789H201.546C200.216 26.8789 199.134 27.9586 199.134 29.2862C199.134 30.6138 200.216 31.6935 201.546 31.6935ZM243.889 47.8844H201.404C200.073 47.8844 198.991 48.9644 198.991 50.292C198.991 51.6196 200.073 52.6993 201.404 52.6993H243.889C245.22 52.6993 246.302 51.6196 246.302 50.292C246.302 48.9644 245.22 47.8844 243.889 47.8844Z" fill="white"/>
<path fill-rule="evenodd" clip-rule="evenodd" d="M153.23 83.0085H150.99C150.731 83.0081 150.483 82.9052 150.299 82.7223C150.116 82.5393 150.013 82.2914 150.013 82.0328V79.7979C150.013 79.2579 150.453 78.8229 150.99 78.8229H153.23C153.767 78.8229 154.208 79.2621 154.208 79.7979V82.0328C154.208 82.161 154.183 82.2881 154.134 82.4066C154.085 82.5251 154.013 82.6329 153.922 82.7235C153.832 82.8142 153.724 82.8861 153.605 82.935C153.486 82.9839 153.359 83.0088 153.23 83.0085ZM145.464 83.0085H143.224C142.965 83.0074 142.717 82.9042 142.534 82.7214C142.351 82.5387 142.248 82.2912 142.247 82.0328V79.7979C142.247 79.2579 142.687 78.8229 143.224 78.8229H145.464C146.001 78.8229 146.442 79.2621 146.442 79.7979V82.0328C146.441 82.2912 146.338 82.5387 146.154 82.7215C145.971 82.9042 145.723 83.0074 145.464 83.0085ZM137.694 83.0085H135.454C135.195 83.0074 134.947 82.9042 134.764 82.7215C134.581 82.5387 134.477 82.2912 134.476 82.0328V79.7979C134.476 79.2579 134.917 78.8229 135.454 78.8229H137.694C138.231 78.8229 138.671 79.2621 138.671 79.7979V82.0328C138.672 82.161 138.647 82.288 138.598 82.4065C138.549 82.5249 138.477 82.6326 138.386 82.7233C138.295 82.8139 138.187 82.8858 138.068 82.9348C137.95 82.9837 137.822 83.0087 137.694 83.0085ZM129.928 83.0085H127.688C127.429 83.0074 127.181 82.9042 126.998 82.7215C126.815 82.5387 126.711 82.2912 126.71 82.0328V79.7979C126.71 79.2579 127.151 78.8229 127.688 78.8229H129.928C130.469 78.8229 130.91 79.2621 130.91 79.7979V82.0328C130.907 82.2914 130.803 82.5385 130.619 82.721C130.435 82.9034 130.187 83.0067 129.928 83.0085ZM122.162 83.0085H119.922C119.662 83.0085 119.413 82.9058 119.229 82.723C119.045 82.5401 118.941 82.2919 118.94 82.0328V79.7979C118.94 79.2579 119.38 78.8229 119.922 78.8229H122.162C122.699 78.8229 123.139 79.2621 123.139 79.7979V82.0328C123.139 82.5686 122.699 83.0085 122.162 83.0085ZM145.18 74.5596H142.94C142.681 74.5585 142.433 74.4553 142.25 74.2726C142.067 74.0898 141.963 73.8423 141.962 73.5839V71.3441C141.962 70.8083 142.403 70.3691 142.94 70.3691H145.18C145.721 70.3691 146.157 70.8083 146.157 71.3441V73.579C146.158 73.7075 146.133 73.835 146.085 73.9539C146.036 74.0729 145.964 74.1811 145.873 74.2722C145.782 74.3634 145.674 74.4357 145.555 74.485C145.436 74.5343 145.309 74.5596 145.18 74.5596ZM137.414 74.5596H135.174C134.915 74.5585 134.667 74.4553 134.484 74.2726C134.301 74.0898 134.197 73.8423 134.196 73.5839V71.3441C134.196 70.8083 134.637 70.3691 135.174 70.3691H137.414C137.951 70.3691 138.391 70.8083 138.391 71.3441V73.579C138.392 73.7075 138.367 73.835 138.319 73.9539C138.27 74.0729 138.198 74.1811 138.107 74.2722C138.016 74.3634 137.908 74.4357 137.789 74.485C137.67 74.5343 137.543 74.5596 137.414 74.5596ZM129.648 74.5596H127.408C127.148 74.5596 126.899 74.4569 126.715 74.274C126.531 74.0912 126.427 73.843 126.426 73.5839V71.3441C126.427 71.0851 126.531 70.8371 126.715 70.6544C126.899 70.4717 127.148 70.3691 127.408 70.3691H129.648C130.185 70.3691 130.625 70.8083 130.625 71.3441V73.579C130.625 73.8382 130.523 74.0868 130.339 74.2706C130.156 74.4544 129.908 74.5583 129.648 74.5596ZM137.694 92.0849H135.454C135.195 92.0838 134.947 91.9807 134.764 91.7979C134.581 91.6152 134.477 91.3677 134.476 91.1092V88.8751C134.476 88.3344 134.917 87.8994 135.454 87.8994H137.694C138.231 87.8994 138.671 88.3393 138.671 88.8751V91.1092C138.672 91.2374 138.647 91.3644 138.598 91.4829C138.549 91.6014 138.477 91.7091 138.386 91.7997C138.295 91.8904 138.187 91.9623 138.068 92.0112C137.95 92.0601 137.822 92.0852 137.694 92.0849ZM129.928 92.0849H127.688C127.429 92.0838 127.181 91.9807 126.998 91.7979C126.815 91.6152 126.711 91.3677 126.71 91.1092V88.8751C126.71 88.3344 127.151 87.8994 127.688 87.8994H129.928C130.469 87.8994 130.91 88.3393 130.91 88.8751V91.1092C130.907 91.3678 130.803 91.6149 130.619 91.7974C130.435 91.9799 130.187 92.0831 129.928 92.0849Z" fill="#FEC62E"/>
<path d="M136.343 104.442V133.473C136.343 135.966 134.611 137.987 132.475 137.987H92.8229C92.0786 137.987 91.348 138.239 90.7187 138.71L84.8841 143.122C82.3113 145.068 78.9116 142.913 78.9116 139.332V104.437C78.9116 101.945 80.6437 99.9238 82.7799 99.9238H132.47C134.611 99.929 136.343 101.95 136.343 104.442Z" fill="#0084D1"/>
<path d="M91.1406 120.924H124.178C125.212 120.924 126.054 120.085 126.054 119.052C126.054 118.02 125.212 117.18 124.178 117.18H91.1406C90.1059 117.18 89.2642 118.02 89.2642 119.052C89.2642 120.085 90.1059 120.924 91.1406 120.924ZM91.2515 112.881H106.147C107.181 112.881 108.023 112.041 108.023 111.009C108.023 109.976 107.181 109.137 106.147 109.137H91.2515C90.2168 109.137 89.3753 109.976 89.3753 111.009C89.3753 112.041 90.2168 112.881 91.2515 112.881ZM124.178 125.471H91.1406C90.1059 125.471 89.2642 126.311 89.2642 127.343C89.2642 128.375 90.1059 129.215 91.1406 129.215H124.178C125.212 129.215 126.054 128.375 126.054 127.343C126.054 126.311 125.212 125.471 124.178 125.471Z" fill="white"/>
</svg>
