<svg width="70" height="68" viewBox="0 0 70 68" fill="none" xmlns="http://www.w3.org/2000/svg">
<path d="M15 21C15 16.5817 18.5817 13 23 13H62C66.4183 13 70 16.5817 70 21V60C70 64.4183 66.4183 68 62 68H23C18.5817 68 15 64.4183 15 60V45.1952C15 44.0983 16.2616 43.4813 17.1275 44.1547C18.0339 44.8597 19.3458 44.1491 19.2504 43.0047L19.0508 40.6097C19.0175 40.2098 18.8832 39.8248 18.6606 39.4909L16.3436 36.0154C15.4675 34.7013 15 33.1572 15 31.5778V21Z" fill="#F1F1F1"/>
<path d="M12 6H49V51H46V44L45 42L42 40L42.5 37V32.5H32L31.5 35.5L32.5 37.5L32 40.5L29 43V51H12V37.5L15 42.5L19.5 45.5L18.5 40L16.5 36.4615L12 28.5V6Z" fill="#E1E4E5"/>
<rect x="29" y="44" width="16" height="11" rx="1" fill="#E1E4E5"/>
<path d="M31.4557 4.85466e-05C30.6182 4.85466e-05 29.9328 0.639667 29.9328 1.42138V1.78215C28.83 1.98432 27.9783 2.82988 27.9783 3.88185V11.2841C27.9783 14.6157 30.3711 17.4228 33.7276 18.6017V18.7712C33.7276 19.5812 34.4971 20.2132 35.364 20.2132H35.6593V20.8282C35.6593 21.4191 36.0894 21.8925 36.6591 22.0795V22.6524C36.6591 25.0968 34.4038 27.0852 31.5459 27.0852C30.6572 27.0852 30.0008 26.7562 29.2962 26.2794C28.5911 25.8027 27.8814 25.1834 26.9329 24.7313C25.34 23.9715 23.9618 23.7319 22.8195 23.8829C21.6776 24.0335 20.7833 24.5812 20.2518 25.3043C19.2951 26.6044 19.468 28.4739 20.8427 29.5463C20.4354 30.0217 20.1838 30.5931 20.1838 31.2218C20.1838 32.8163 21.74 34.1279 23.6383 34.1279C25.5359 34.1279 27.07 32.8165 27.07 31.2218C27.07 29.6272 25.5365 28.3371 23.6383 28.3371C22.9079 28.3371 22.2195 28.5184 21.6609 28.846C20.5942 28.1141 20.4821 26.7993 21.1608 25.8766C21.5245 25.3828 22.0921 24.9936 22.956 24.8795C23.8198 24.7654 24.9871 24.9321 26.4327 25.6219C27.2078 25.9916 27.8809 26.5796 28.6595 27.1066C29.4381 27.6335 30.3573 28.1037 31.5459 28.1037C34.9517 28.1037 37.7496 25.6806 37.7496 22.6524V22.0795C38.3193 21.8925 38.7495 21.4186 38.7495 20.8282V20.2132H39.0447C39.9116 20.2132 40.6812 19.5807 40.6812 18.7712V18.6017C44.0317 17.4228 46.4082 14.6157 46.4082 11.2841V3.88183C46.4082 2.82273 45.5626 1.97666 44.4537 1.78213V1.42136C44.4537 0.639704 43.7684 2.45045e-05 42.9308 2.45045e-05H42.7264C41.8889 2.45045e-05 41.1813 0.639643 41.1813 1.42136V2.80003C41.1813 3.58168 41.8895 4.22136 42.7264 4.22136H42.9308C43.7531 4.22136 44.4298 3.60542 44.4537 2.84269C44.9772 3.00508 45.317 3.40703 45.317 3.8819V11.2842C45.317 14.1386 43.3053 16.5943 40.3854 17.6473C40.0851 17.2643 39.59 17.011 39.0447 17.011H35.363C34.8176 17.011 34.3226 17.2643 34.0223 17.6473C31.0964 16.5943 29.0684 14.1386 29.0684 11.2842V3.8819C29.0684 3.41508 29.4179 3.03207 29.9318 2.864C29.9668 3.61677 30.6394 4.22134 31.4546 4.22134H31.6819C32.5194 4.22134 33.2048 3.58172 33.2048 2.80001V1.42133C33.2048 0.639679 32.5194 0 31.6819 0H31.4546L31.4557 4.85466e-05ZM31.4557 1.01795H31.6829C31.935 1.01795 32.1146 1.18602 32.1146 1.42085V2.79952C32.1146 3.03482 31.9345 3.20242 31.6829 3.20242H31.4557C31.2036 3.20242 31.024 3.03435 31.024 2.79952V1.42085C31.024 1.18555 31.2041 1.01795 31.4557 1.01795ZM42.7276 1.01795H42.932C43.1841 1.01795 43.3637 1.18602 43.3637 1.42085V2.79952C43.3637 3.03482 43.1836 3.20242 42.932 3.20242H42.7276C42.4755 3.20242 42.2731 3.03435 42.2731 2.79952V1.42085C42.2731 1.18555 42.4755 1.01795 42.7276 1.01795ZM12.0717 6.00238C11.8257 6.05114 11.6345 6.27697 11.6401 6.51133V27.1072L5.16334 16.1838C5.01522 15.9485 4.69361 15.8647 4.43591 15.9935L0.299642 18.1359C0.260075 18.1463 0.22203 18.16 0.186015 18.178C-0.00928006 18.3376 -0.0569643 18.6041 0.0723884 18.8143L11.6395 38.3072V51.0976C11.6395 51.3642 11.8992 51.6066 12.1848 51.6066H24.3205C24.6086 51.6132 24.8658 51.3666 24.8658 51.0976C24.8658 50.8287 24.6086 50.5849 24.3205 50.5887H12.73V40.153L14.2751 42.7616C14.3096 42.8189 14.3568 42.8691 14.4121 42.9098L19.3209 46.6429C19.4918 46.7722 19.7287 46.793 19.9225 46.696C20.1163 46.5984 20.2284 46.402 20.2071 46.1974L19.4345 40.3012C19.4228 40.2415 19.3995 40.1838 19.366 40.1317L12.73 28.9536C12.73 20.7203 12.73 15.9642 12.73 8C12.73 7.67939 12.73 7.35359 12.73 7.02215H26.4106C26.6987 7.02641 26.9559 6.78211 26.9559 6.5132C26.9559 6.24429 26.6987 6.00046 26.4106 6.00425H12.1846C12.147 6.00094 12.1085 6.00094 12.0709 6.00425L12.0717 6.00238ZM47.3415 6.00238C47.0559 6.02463 46.8175 6.28739 46.8413 6.55394C46.8652 6.82049 47.1467 7.04302 47.4323 7.02076H48.9094V50.5868H47.3866C47.0984 50.5801 46.8413 50.8268 46.8413 51.0957C46.8413 51.3646 47.0984 51.6085 47.3866 51.6047H49.4547C49.7403 51.6047 50 51.3623 50 51.0957V6.51162C50 6.24507 49.7403 6.00267 49.4547 6.00267H47.4323C47.4018 6.00077 47.3714 6.00048 47.3415 6.00238ZM18.7075 10.8808V13.1292H16.3214V14.7199H18.7075V16.9684H20.4348V14.7199H22.821V13.1292H20.4348V10.8808H18.7075ZM4.48147 17.1378L5.84499 19.4283L2.66344 21.0824L1.29992 18.7706L4.48147 17.1378ZM35.3659 18.0288H39.0476C39.3845 18.0288 39.5929 18.2466 39.5929 18.453V18.7712C39.5929 18.9776 39.3905 19.1954 39.0476 19.1954H38.2061C37.9048 19.1959 37.6603 19.4236 37.6603 19.7048V20.8288C37.6603 20.9893 37.4944 21.1469 37.2058 21.1469C36.9171 21.1469 36.7513 20.9893 36.7513 20.8288V19.7048C36.7513 19.4236 36.5073 19.1959 36.2059 19.1954H35.3649C35.022 19.1954 34.8196 18.9776 34.8196 18.7712V18.453C34.8196 18.2466 35.029 18.0288 35.3659 18.0288ZM6.36832 20.3193L18.0262 40.0025L16.9127 40.5753L5.25489 20.8922L6.36832 20.3193ZM4.30019 21.4011L15.958 41.0637L14.8674 41.6366L3.18724 21.974L4.30019 21.4011ZM23.6401 29.2916C24.9164 29.2916 25.9355 30.149 25.9355 31.2219C25.9355 32.2942 24.9169 33.1521 23.6401 33.1521C22.3638 33.1521 21.3219 32.2947 21.3219 31.2219C21.3219 30.7115 21.577 30.2518 21.958 29.9066C22.0401 29.8673 22.1112 29.8086 22.1624 29.7371C22.5621 29.4563 23.0755 29.2916 23.6401 29.2916ZM32.4573 31.6881C31.7217 31.6881 31.1166 32.2534 31.1166 32.9394V36.6726C31.1166 37.2109 31.4869 37.6857 32.0028 37.8604V39.706C32.0028 39.8584 31.9551 39.9403 31.6619 40.1302C31.3687 40.32 30.8919 40.5317 30.3892 40.8091C29.3843 41.364 28.2303 42.3151 28.2303 44.118V55.3168C28.2303 56.6373 29.4239 57.6926 30.8666 57.6926H43.4791C44.9217 57.6926 46.1382 56.6373 46.1382 55.3168V44.118C46.1382 42.3151 44.9842 41.364 43.9793 40.8091C43.4766 40.5317 42.9998 40.32 42.7066 40.1302C42.4134 39.9403 42.3429 39.8584 42.3429 39.706V37.8604C42.8694 37.6914 43.2519 37.2184 43.2519 36.6726V32.9394C43.2519 32.2529 42.6462 31.6881 41.9113 31.6881H32.4573ZM32.4573 32.706H41.9112C42.0608 32.706 42.1612 32.7993 42.1612 32.9394V36.6726C42.1612 36.8122 42.0613 36.906 41.9112 36.906H32.4578C32.3082 36.906 32.2077 36.8127 32.2077 36.6726V32.9394C32.2077 32.7998 32.3071 32.706 32.4573 32.706ZM33.0934 37.9239H41.2522V39.7054C41.2522 40.2736 41.6767 40.6869 42.0932 40.9567C42.5097 41.2266 42.9677 41.433 43.411 41.6778C44.1755 42.1001 44.8334 42.5555 45.0018 43.5867H29.3668C29.5306 42.5555 30.1703 42.1 30.9347 41.6778C31.378 41.433 31.8589 41.2266 32.2753 40.9567C32.6918 40.6869 33.0936 40.2735 33.0936 39.7054L33.0934 37.9239ZM18.4349 40.9567L18.9574 45.0714L15.5257 42.4628L18.4349 40.9567ZM29.3207 44.6051H45.0467V54.4679H29.3207V44.6051ZM36.3427 46.5775V48.7619H34.0023V50.3313H36.3427V52.5157H38.0243V50.3313H40.3647V48.7619H38.0243V46.5775H36.3427ZM29.3436 55.4858H45.0241C44.9297 56.1519 44.2971 56.6737 43.479 56.6737H30.8664C30.0482 56.6737 29.4354 56.1519 29.3436 55.4858Z" fill="#666666"/>
</svg>
