<svg width="137" height="50" viewBox="0 0 137 50" fill="none" xmlns="http://www.w3.org/2000/svg">
<g clip-path="url(#clip0_456_3717)">
<mask id="mask0_456_3717" style="mask-type:alpha" maskUnits="userSpaceOnUse" x="0" y="0" width="88" height="50">
<path d="M0.0219727 0.0507812H87.6618V50.0007H0.0219727V0.0507812Z" fill="white"/>
</mask>
<g mask="url(#mask0_456_3717)">
<path fill-rule="evenodd" clip-rule="evenodd" d="M36.6774 4.10481C36.8559 8.09697 40.2775 23.3339 40.2775 23.3339C41.5364 26.4179 42.6176 23.3339 42.6176 23.3339C46.7584 10.8167 38.2988 3.56227 38.2988 3.56227C36.1357 2.29175 36.6774 4.10481 36.6774 4.10481ZM85.8208 1.92869C85.8208 1.92869 89.9626 4.83056 85.8208 5.37421C85.8208 5.37421 70.3394 7.18876 58.8181 18.075C58.8181 18.075 41.5364 33.3108 35.0552 50.0007C35.0552 50.0007 32.8969 50.0007 33.6182 46.7358C34.3373 43.4697 38.6565 29.1403 57.9176 11.5425C57.9176 11.5425 76.4614 -5.50788 85.8208 1.92869Z" fill="#ADADAD"/>
<path fill-rule="evenodd" clip-rule="evenodd" d="M10.3439 14.4609C8.1104 14.4609 5.80732 14.6736 4.32883 15.0613L0 38.3729H4.84536L6.4253 29.8397C6.94071 29.8744 7.62905 29.9785 8.45327 29.9785C11.2718 29.9785 13.9866 29.2736 15.8772 27.7565C17.6645 26.3468 19.0056 24.055 19.0056 21.0923C19.0056 18.7997 18.0773 17.1087 16.4963 16.0497C14.8134 14.8139 12.4414 14.4609 10.3439 14.4609ZM9.09976 26.29C8.07152 26.29 7.45317 26.205 6.79446 26.0774L8.357 17.6602C8.85464 17.5755 9.67997 17.4908 10.7919 17.4908C13.1013 17.4908 14.9963 18.3792 14.9963 21.0859C14.9963 23.9636 12.6466 26.29 9.09976 26.29Z" fill="#ADADAD"/>
</g>
<path fill-rule="evenodd" clip-rule="evenodd" d="M29.7256 20.6445C21.092 20.6445 17.1353 27.0233 17.1353 33.0046C17.1353 36.7039 19.2932 39.1684 22.4568 39.1684C24.5084 39.1684 26.7745 38.1897 28.4307 35.255H28.5018C28.4307 36.5218 28.3222 37.7554 28.2856 38.7692H33.0332C32.9636 36.5576 33.3224 33.0781 33.7522 30.7953L35.5169 21.5154C34.0781 21.0419 31.8483 20.6445 29.7256 20.6445ZM24.2082 35.505C22.6171 35.505 21.8621 34.1856 21.8621 32.2632C21.8621 28.6188 24.5666 24.0535 28.2611 24.0535C28.8569 24.0535 29.3342 24.1326 29.7711 24.2139L28.9769 28.7386C28.1008 33.5442 25.9177 35.505 24.2082 35.505Z" fill="#ADADAD"/>
<path fill-rule="evenodd" clip-rule="evenodd" d="M64.6952 20.6445C58.4373 20.6445 54.1914 25.7192 54.1914 31.8445C54.1914 36.2307 57.178 39.1684 61.6731 39.1684H61.7086C67.7526 39.1684 72.1754 34.4188 72.1754 27.9665C72.1754 23.9076 69.4428 20.6445 64.6952 20.6445ZM62.1759 35.6479C60.1172 35.6479 58.9001 34.1494 58.9001 31.8975C58.9001 28.899 60.6656 24.1639 64.1495 24.1639C66.5436 24.1639 67.3815 26.021 67.3815 27.8356C67.3815 31.111 65.4932 35.6479 62.2174 35.6479H62.1759Z" fill="#ADADAD"/>
<path fill-rule="evenodd" clip-rule="evenodd" d="M85.9529 20.6445C83.651 20.6445 81.4568 21.696 79.8005 23.9789H79.7306L80.0531 21.0419H75.485C75.2688 22.6382 74.9807 24.5595 74.5486 26.8065L72.3188 38.7692H77.4986L78.9389 30.9035C79.6946 26.9886 81.636 24.8486 83.3266 24.8486C84.6581 24.8486 85.0898 25.7192 85.0898 26.9886C85.0898 27.6404 85.0169 28.3307 84.9084 28.9457L83.0741 38.7692H88.2549L90.1977 28.4721C90.3418 27.605 90.4847 26.2986 90.4847 25.5027C90.4847 22.4207 88.8307 20.6445 85.9529 20.6445Z" fill="#ADADAD"/>
<path fill-rule="evenodd" clip-rule="evenodd" d="M101.686 20.6445C95.3164 20.6445 91.4326 26.2621 91.4326 31.6647C91.4326 36.3042 94.0223 39.1684 99.0591 39.1684C101.001 39.1684 103.556 38.8046 105.605 37.7554L105.247 33.9856C103.845 34.6721 102.224 35.1076 100.319 35.1076C98.8077 35.1076 97.6202 34.6363 96.9378 33.7311C96.5757 33.2233 96.3976 32.4274 96.3976 31.9195C96.7441 31.9281 97.0841 31.933 97.4177 31.933C103.864 31.933 107.799 30.2479 107.799 25.9729C107.799 22.6762 105.247 20.6445 101.686 20.6445ZM96.6849 28.5016C96.5457 28.5016 96.4039 28.5012 96.2606 28.5001C96.6956 26.5203 98.3522 24.0613 101.274 24.0613C102.712 24.0613 103.584 24.8098 103.584 25.8639V25.9072C103.584 27.8274 101.286 28.5016 96.6849 28.5016Z" fill="#ADADAD"/>
<path fill-rule="evenodd" clip-rule="evenodd" d="M118.164 20.6445C111.795 20.6445 107.91 26.2621 107.91 31.6647C107.91 36.3042 110.5 39.1684 115.536 39.1684C117.479 39.1684 120.034 38.8046 122.084 37.7554L121.724 33.9856C120.322 34.6721 118.702 35.1076 116.796 35.1076C115.284 35.1076 114.096 34.6363 113.415 33.7311C113.054 33.2233 112.874 32.4274 112.874 31.9195C113.221 31.9281 113.561 31.933 113.895 31.933C120.342 31.933 124.278 30.2479 124.278 25.9729C124.278 22.6762 121.724 20.6445 118.164 20.6445ZM113.162 28.5016C113.024 28.5016 112.882 28.5012 112.738 28.4998C113.174 26.5203 114.831 24.0617 117.752 24.0617C119.19 24.0617 120.062 24.8098 120.062 25.8639V25.9072C120.062 27.8274 117.761 28.5016 113.162 28.5016Z" fill="#ADADAD"/>
<path fill-rule="evenodd" clip-rule="evenodd" d="M136.028 20.6074C133.618 20.6074 132.202 22.3097 130.98 24.7033H130.837C130.98 23.4339 131.086 22.2384 131.159 21.0406H126.698C126.796 22.8742 126.525 26.6574 126.057 29.341L124.038 38.7679H128.358L129.481 32.1716C130.128 28.6899 131.861 25.147 135.135 25.147C135.422 25.147 135.711 25.147 135.925 25.1865L137 20.6432C136.71 20.6432 136.388 20.6074 136.028 20.6074Z" fill="#ADADAD"/>
</g>
<defs>
<clipPath id="clip0_456_3717">
<rect width="137" height="50" fill="white"/>
</clipPath>
</defs>
</svg>
