<svg width="66" height="67" viewBox="0 0 66 67" fill="none" xmlns="http://www.w3.org/2000/svg">
<rect x="11" y="12" width="55" height="55" rx="8" fill="#FFF0E9"/>
<path d="M8 5H39.6341L41.5 7.2439L44 9.97829V51H35L33 49L31 44.5L28.5 43.5V38H30.5V33.5L15.5 27L8 29.5V5Z" fill="#FFB96E"/>
<path d="M8.15209 5.37653H8.32709H11.1029H11.2779V5.55153V9.25259C11.2779 10.1818 11.7736 11.0402 12.5783 11.505C13.3829 11.9694 14.3744 11.9694 15.179 11.5051C15.9837 11.0402 16.4795 10.1818 16.4795 9.25259V7.57706H14.9789V9.25259C14.9789 9.8602 14.4863 10.3529 13.8787 10.3529C13.2711 10.3529 12.7784 9.8602 12.7784 9.25259V3.701C12.7784 2.97717 13.1645 2.30849 13.7912 1.94678C14.4178 1.58508 15.1901 1.58508 15.8167 1.94678C16.4434 2.30849 16.8295 2.97719 16.8295 3.701V3.876H16.6545H14.9789V5.37653H37.0103H37.1853V5.55153V11.1031C37.1853 11.3021 37.2643 11.493 37.405 11.6337C37.5457 11.7743 37.7366 11.8534 37.9355 11.8534H43.4871H43.6621V12.0284V22.9566H45.1627V11.1031C45.1627 10.9041 45.0836 10.7132 44.9429 10.5726L38.4661 4.09572C38.3254 3.95507 38.1345 3.876 37.9355 3.876H18.505H18.33V3.701C18.33 2.4413 17.6578 1.27719 16.567 0.647223C15.4761 0.0175944 14.1318 0.0175924 13.0409 0.647217L8.15209 5.37653ZM8.15209 5.37653V5.55153V26.6576M8.15209 5.37653V26.6576M8.15209 26.6576H6.65156V4.62627C6.65156 4.21196 6.98752 3.876 7.40183 3.876H11.1029H11.2779V3.701C11.2779 2.44143 11.95 1.27731 13.0409 0.647241L8.15209 26.6576ZM38.9846 6.73638L38.6858 6.43763V6.86012V10.1779V10.3529H38.8608H42.1785H42.601L42.3023 10.0541L38.9846 6.73638Z" fill="#353434" stroke="#FFB96E" stroke-width="0.35"/>
<path d="M1 38V33.5L15.5 26.5L30 33.5V38L15.5 31.5L1 38Z" fill="#ED8C5F" stroke="#FFF0E9" stroke-width="0.35"/>
<path d="M4 37V54.5L26 54L24.5 51.5L26.5 49L28 45V37L15.5 32L4 37Z" fill="#FFDAB1" stroke="#FFF0E9" stroke-width="0.35"/>
<path d="M43.4876 51.0653H43.6626V50.8903V39.9621H45.1631V51.8155C45.1631 52.0145 45.0841 52.2054 44.9434 52.3461C44.8028 52.4867 44.6118 52.5658 44.4129 52.5658H37.1857V51.0653H43.4876Z" fill="#353434" stroke="#FFF0E9" stroke-width="0.35"/>
<path d="M22.2059 47.3638H22.3809V47.1888V44.413V44.238H22.2059H18.5048H18.3298V44.413V47.1888V47.3638H18.5048H22.2059ZM16.8293 43.4878C16.8293 43.0735 17.1653 42.7375 17.5796 42.7375H23.1311C23.3301 42.7375 23.521 42.8166 23.6617 42.9572C23.8023 43.0979 23.8814 43.2888 23.8814 43.4878V48.1141C23.8814 48.3131 23.8023 48.504 23.6617 48.6446C23.521 48.7853 23.3301 48.8644 23.1311 48.8644H17.5796C17.3806 48.8644 17.1897 48.7853 17.049 48.6446C16.9084 48.504 16.8293 48.3131 16.8293 48.1141V43.4878Z" fill="#353434" stroke="#FFF0E9" stroke-width="0.35"/>
<path d="M10.3527 37.1848H11.8533V38.6853H10.3527V37.1848Z" fill="#353434" stroke="#FFF0E9" stroke-width="0.35"/>
<path d="M0.418865 38.7112L0.514654 38.5648C0.302641 38.4261 0.175022 38.19 0.175022 37.9367V33.3104C0.175022 33.0124 0.351495 32.7427 0.624569 32.6231L15.4287 26.1463L15.4289 26.1462C15.6204 26.0622 15.8387 26.0622 16.0301 26.1462L16.0303 26.1463L30.8345 32.6231C31.1075 32.7427 31.284 33.0124 31.284 33.3104V37.9367C31.284 38.19 31.1564 38.4261 30.9444 38.5648L30.9443 38.5648C30.7327 38.7034 30.4651 38.7259 30.2329 38.6244L28.7534 37.9768L28.5082 37.8694V38.1371V42.388H27.0077V37.3274V37.2129L26.9028 37.1671L15.7997 32.3094L15.7295 32.2787L15.6594 32.3094L4.55622 37.1671L4.45136 37.2129V37.3274V53.666V53.841H4.62636H7.40216H7.57716V53.666V41.6375C7.57716 41.2232 7.91311 40.8873 8.32742 40.8873H13.879C14.078 40.8873 14.2689 40.9663 14.4096 41.107C14.5502 41.2476 14.6293 41.4386 14.6293 41.6375V53.666V53.841H14.8043H24.5683H24.881L24.7174 53.5744C24.3978 53.0536 24.2296 52.4539 24.2319 51.843V51.8423C24.2319 50.5941 24.8776 49.9407 25.3798 49.4347C25.6025 49.2104 25.7817 49.0258 25.9011 48.8268C26.0263 48.6181 26.0825 48.4005 26.0825 48.1144C26.0825 46.9942 26.3927 45.875 26.9892 45.0408C27.5824 44.2113 28.4575 43.6631 29.6085 43.6631C30.7595 43.6631 31.6346 44.2113 32.2278 45.0408C32.8227 45.8728 33.1329 46.9881 33.1346 48.1053L33.1345 48.106V48.1151C33.1345 48.4011 33.1906 48.6187 33.3157 48.8274C33.435 49.0265 33.6142 49.2111 33.8372 49.4355C34.3395 49.9415 34.985 50.5953 34.985 51.843V51.8432C34.9862 52.8912 34.4952 53.8786 33.6585 54.5101L33.6585 54.5101L33.656 54.512C32.998 55.0276 32.1519 55.3422 31.459 55.3422H0.175V53.8417H2.77579H2.95079V53.6667V38.1371V37.8695L2.70565 37.9767L1.22611 38.624C0.993971 38.7255 0.72665 38.7031 0.514489 38.5647L0.418865 38.7112ZM0.418865 38.7112C0.680339 38.8818 1.00996 38.9095 1.29622 38.7843L15.3586 25.986L15.3586 25.986L0.554355 32.4628C0.217707 32.6103 2.17827e-05 32.9428 2.17827e-05 33.3104V37.9367C2.17827e-05 38.249 0.157401 38.5402 0.418865 38.7112ZM1.67559 36.5216V36.7891L1.92068 36.682L2.84684 36.2772L2.95175 36.2313V36.2312L15.4292 30.7722L15.4294 30.7721C15.6208 30.6881 15.8392 30.6881 16.0306 30.7721L16.0308 30.7722L28.5083 36.2312V36.2313L28.6131 36.2771L29.5384 36.6819L29.7835 36.7892V36.5216V33.9152V33.8008L29.6787 33.7549L15.7997 27.6828L15.7296 27.6521L15.6594 27.6828L1.78045 33.7549L1.67559 33.8008V33.9152V36.5216ZM9.25271 42.3877H9.07771V42.5627V53.6659V53.8409H9.25271H12.9538H13.1288V53.6659V42.5627V42.3877H12.9538H9.25271ZM27.758 53.8409H31.459C31.459 53.8409 31.459 53.8409 31.459 53.8409C31.7584 53.8408 32.2568 53.6837 32.6798 53.3677C33.1094 53.0468 33.4845 52.5438 33.4845 51.8422C33.4845 51.5471 33.4278 51.3239 33.301 51.1108C33.1799 50.9073 32.998 50.7198 32.7721 50.4918L32.7719 50.4917C32.2736 49.9901 31.634 49.3421 31.634 48.1144C31.634 47.617 31.5347 46.8947 31.2401 46.2898C30.9433 45.6808 30.4314 45.1636 29.6085 45.1636C29.2404 45.1636 28.7304 45.3284 28.3138 45.7851C27.8951 46.2441 27.583 46.9839 27.583 48.1144C27.583 49.3421 26.943 49.99 26.445 50.4917C26.2188 50.7195 26.0369 50.907 25.9158 51.1106C25.7891 51.3238 25.7325 51.5471 25.7325 51.8422C25.7325 52.5438 26.1074 53.0468 26.5368 53.3677C26.9597 53.6837 27.4583 53.8409 27.758 53.8409Z" fill="#353434" stroke="#FFDAB1" stroke-width="0.35"/>
<path d="M52.1079 24.8223L52.1845 24.7091L54.187 21.7483H54.1848L54.3717 21.4746C54.7618 20.9034 54.9081 20.2002 54.7785 19.5205L52.1079 24.8223ZM52.1079 24.8223L52.1992 24.924L54.2648 27.2267M52.1079 24.8223L51.382 26.522M51.7249 17.4558L51.6913 17.284L51.7249 17.4558ZM51.7249 17.4558C52.4041 17.323 53.1077 17.4662 53.6809 17.854L53.6809 17.854C54.2537 18.2414 54.6488 18.8413 54.7785 19.5205L35.0313 40.7885L50.0627 18.5613L50.0631 18.5607C50.4481 17.986 51.0461 17.5885 51.7249 17.4558ZM51.382 26.522L52.5355 27.8079L48.8915 33.1959L49.0365 33.2939M51.382 26.522L51.4065 26.4858L51.2616 26.3877L51.1313 26.5046L51.1605 26.5372L51.382 26.522ZM49.0365 33.2939L48.9384 33.4389L50.1814 34.2796L50.2794 34.1347M49.0365 33.2939L50.2794 34.1347M49.0365 33.2939L52.6804 27.9059L52.757 27.7927L52.6657 27.691L51.3918 26.2709L51.2422 26.104L51.1166 26.2897L39.3398 43.7026L39.3397 43.7029C39.2748 43.7993 39.1881 43.8792 39.0869 43.936L38.9975 43.9861V43.9867M50.2794 34.1347L50.4244 34.2327L54.3548 28.4212H54.1435M50.2794 34.1347L54.1435 28.4212M54.1435 28.4212L54.328 28.1483L54.3282 28.1481L54.4727 28.2459V28.0712H54.4731H54.5655C54.6941 27.7496 54.6335 27.3758 54.3951 27.1098L54.2648 27.2267L54.2648 27.2267M54.1435 28.4212H54.1432L54.3277 28.1482C54.5207 27.8628 54.4945 27.4829 54.2648 27.2267M54.2648 27.2267L35.4807 45.9654L35.4806 45.9655L35.5664 46.118L35.4808 45.9654L38.9975 43.9867M38.9975 43.9867L39.0867 43.9365L39.1723 44.0886L39.1725 44.089H38.9975V44.0886V43.9867ZM52.0081 18.935L52.0078 18.9351C51.7209 18.9915 51.4681 19.1592 51.3053 19.4022C51.3052 19.4024 51.3051 19.4026 51.305 19.4028L49.6363 21.8692L49.5598 21.9824L49.651 22.0841L50.9249 23.5042L51.0746 23.6711L51.2001 23.4854L53.1274 20.6355C53.1275 20.6354 53.1276 20.6353 53.1277 20.6351C53.2926 20.3935 53.3543 20.0961 53.2998 19.809L53.2998 19.8087C53.2448 19.5215 53.0778 19.2676 52.8352 19.1035L52.8351 19.1035C52.593 18.94 52.2954 18.879 52.0081 18.935ZM38.1596 42.7355L38.1956 42.7153L38.2187 42.6811L40.688 39.0301L40.7861 38.8851L40.6411 38.7871L39.1083 37.7503L38.9633 37.6522L38.8653 37.7972L36.3959 41.4482L36.3728 41.4825L36.3674 41.5234L36.0972 43.5747L36.0515 43.9216L36.3565 43.75L38.1596 42.7355ZM41.4818 37.5441L41.6268 37.6421L41.7248 37.4971L50.1315 25.0657L50.208 24.9526L50.1168 24.8509L48.8433 23.4303L48.6937 23.2634L48.5681 23.4491L39.902 36.2643L39.804 36.4092L39.9489 36.5073L41.4818 37.5441Z" fill="#353434" stroke="#FFB96E" stroke-width="0.35"/>
<path d="M14.0539 14.9797H15.5544V16.4802H14.0539V14.9797Z" fill="#353434" stroke="#FFB96E" stroke-width="0.35"/>
<path d="M17.7551 14.9797H39.6114V16.4802H17.7551V14.9797Z" fill="#353434" stroke="#FFB96E" stroke-width="0.35"/>
<path d="M12.2033 18.6809H39.6112V20.1814H12.2033V18.6809Z" fill="#353434" stroke="#FFB96E" stroke-width="0.35"/>
<path d="M12.2033 22.382H39.6112V23.8826H12.2033V22.382Z" fill="#353434" stroke="#FFB96E" stroke-width="0.35"/>
<path d="M26.0822 26.0832H39.6112V27.5837H26.0822V26.0832Z" fill="#353434" stroke="#FFB96E" stroke-width="0.35"/>
<path d="M33.4846 29.7844H35.9104V31.2849H33.4846V29.7844Z" fill="#353434" stroke="#FFB96E" stroke-width="0.35"/>
</svg>
