<svg width="99" height="34" viewBox="0 0 99 34" fill="none" xmlns="http://www.w3.org/2000/svg">
<path fill-rule="evenodd" clip-rule="evenodd" d="M34.0939 16.8343C34.0939 7.61789 26.4738 0.146484 17.0737 0.146484C7.67354 0.146484 0.0537109 7.61789 0.0537109 16.8343C0.0537109 25.7015 7.03256 32.9629 15.9344 33.5215V20.6046C14.2967 20.116 13.0857 18.6496 13.0857 16.8343C13.0857 14.7392 14.8661 12.9939 17.0737 12.9939C19.2813 12.9939 21.0618 14.7392 21.0618 16.8343C21.0618 18.6496 19.8515 20.116 18.142 20.6046V33.5215C27.0438 32.9629 34.0939 25.7015 34.0939 16.8343Z" fill="#ADADAD"/>
<path fill-rule="evenodd" clip-rule="evenodd" d="M58.2105 9.87657C59.2419 7.85394 60.2735 5.83112 61.305 3.80848C55.4469 -1.56169 44.3182 -1.3246 40.6901 6.36269C39.723 8.41183 39.757 10.6827 40.6793 13.0695C41.1247 14.2214 41.9257 15.6579 43.1979 16.6874C43.848 17.2136 46.3458 18.4265 48.3651 19.324C50.2543 20.1636 52.855 20.7664 54.049 22.4218C55.4135 24.3136 54.5708 26.6495 51.4058 27.0749C49.632 27.3131 46.9922 26.5901 43.0577 23.4775C41.6706 25.2561 40.2833 27.0345 38.896 28.8133C52.1301 40.1287 64.3461 30.2215 61.4837 21.4163C60.7565 19.1794 59.2605 17.4593 57.4073 16.1468C54.5408 14.1169 51.548 13.5669 49.5502 12.713C45.8068 11.1132 46.335 6.60983 51.526 6.88475C54.8113 7.05859 55.8668 7.97824 58.2105 9.87657Z" fill="#ADADAD"/>
<path fill-rule="evenodd" clip-rule="evenodd" d="M64.918 0.132812H77.7498C82.0636 0.132812 87.1216 3.80792 87.1216 8.19538C87.1216 9.20899 87.193 9.96905 87.1221 11.1463C86.9819 13.4745 84.7907 16.088 83.3786 16.088C85.5762 16.088 87.7717 19.1741 88.3107 21.3104C89.6201 26.4991 86.8397 33.8882 77.7498 33.8882H64.918V0.132812ZM71.8002 6.29248H76.8423C78.7351 6.29248 80.2837 7.86763 80.2837 9.79283V10.2942C80.2837 11.9438 78.957 13.293 77.3353 13.293H75.2546V19.5342H77.6825C79.8761 19.5342 81.6708 21.3596 81.6708 23.5906C81.6708 25.8218 79.8761 27.6472 77.6825 27.6472H71.8002C71.8002 20.529 71.8002 13.4107 71.8002 6.29248Z" fill="#ADADAD"/>
<path fill-rule="evenodd" clip-rule="evenodd" d="M91.7417 33.8882H98.9978V0.132812H91.7417V33.8882Z" fill="#ADADAD"/>
</svg>
