<svg width="14" height="15" viewBox="0 0 14 15" fill="none" xmlns="http://www.w3.org/2000/svg">
<path d="M6.99967 1.66602C5.762 1.66602 4.57501 2.15768 3.69984 3.03285C2.82467 3.90802 2.33301 5.09501 2.33301 6.33268C2.33301 9.48268 6.44551 13.041 6.62051 13.1927C6.72617 13.2831 6.86063 13.3327 6.99967 13.3327C7.13871 13.3327 7.27318 13.2831 7.37884 13.1927C7.58301 13.041 11.6663 9.48268 11.6663 6.33268C11.6663 5.09501 11.1747 3.90802 10.2995 3.03285C9.42434 2.15768 8.23735 1.66602 6.99967 1.66602ZM6.99967 11.9618C5.75717 10.7952 3.49967 8.28102 3.49967 6.33268C3.49967 5.40442 3.86842 4.51419 4.5248 3.85781C5.18118 3.20143 6.07142 2.83268 6.99967 2.83268C7.92793 2.83268 8.81817 3.20143 9.47455 3.85781C10.1309 4.51419 10.4997 5.40442 10.4997 6.33268C10.4997 8.28102 8.24217 10.801 6.99967 11.9618ZM6.99967 3.99935C6.53818 3.99935 6.08706 4.1362 5.70334 4.39259C5.31963 4.64898 5.02056 5.01339 4.84396 5.43975C4.66735 5.86612 4.62114 6.33527 4.71117 6.78789C4.80121 7.24052 5.02344 7.65628 5.34976 7.9826C5.67608 8.30892 6.09184 8.53115 6.54446 8.62118C6.99709 8.71121 7.46624 8.66501 7.8926 8.4884C8.31896 8.3118 8.68338 8.01273 8.93977 7.62901C9.19616 7.2453 9.33301 6.79417 9.33301 6.33268C9.33301 5.71384 9.08717 5.12035 8.64959 4.68277C8.212 4.24518 7.61851 3.99935 6.99967 3.99935ZM6.99967 7.49935C6.76893 7.49935 6.54337 7.43092 6.35151 7.30273C6.15965 7.17453 6.01012 6.99233 5.92181 6.77915C5.83351 6.56597 5.81041 6.33139 5.85542 6.10508C5.90044 5.87877 6.01155 5.67089 6.17472 5.50772C6.33788 5.34456 6.54576 5.23345 6.77207 5.18843C6.99838 5.14342 7.23296 5.16652 7.44614 5.25482C7.65932 5.34312 7.84153 5.49266 7.96972 5.68452C8.09792 5.87637 8.16634 6.10194 8.16634 6.33268C8.16634 6.6421 8.04342 6.93885 7.82463 7.15764C7.60584 7.37643 7.30909 7.49935 6.99967 7.49935Z" fill="#272727"/>
</svg>
